<?xml version="1.0" encoding="utf-8" standalone="no"?>
<!DOCTYPE svg PUBLIC "-//W3C//DTD SVG 1.1//EN"
  "http://www.w3.org/Graphics/SVG/1.1/DTD/svg11.dtd">
<!-- Created with matplotlib (https://matplotlib.org/) -->
<svg height="288pt" version="1.1" viewBox="0 0 432 288" width="432pt" xmlns="http://www.w3.org/2000/svg" xmlns:xlink="http://www.w3.org/1999/xlink">
 <metadata>
  <rdf:RDF xmlns:cc="http://creativecommons.org/ns#" xmlns:dc="http://purl.org/dc/elements/1.1/" xmlns:rdf="http://www.w3.org/1999/02/22-rdf-syntax-ns#">
   <cc:Work>
    <dc:type rdf:resource="http://purl.org/dc/dcmitype/StillImage"/>
    <dc:date>2020-10-29T16:02:54.173186</dc:date>
    <dc:format>image/svg+xml</dc:format>
    <dc:creator>
     <cc:Agent>
      <dc:title>Matplotlib v3.3.2, https://matplotlib.org/</dc:title>
     </cc:Agent>
    </dc:creator>
   </cc:Work>
  </rdf:RDF>
 </metadata>
 <defs>
  <style type="text/css">*{stroke-linecap:butt;stroke-linejoin:round;}</style>
 </defs>
 <g id="figure_1">
  <g id="patch_1">
   <path d="M 0 288 
L 432 288 
L 432 0 
L 0 0 
z
" style="fill:none;"/>
  </g>
  <g id="axes_1">
   <g id="patch_2">
    <path d="M 54 252 
L 388.8 252 
L 388.8 34.56 
L 54 34.56 
z
" style="fill:#ffffff;"/>
   </g>
   <g id="matplotlib.axis_1">
    <g id="xtick_1">
     <g id="line2d_1">
      <defs>
       <path d="M 0 0 
L 0 3.5 
" id="m71e752bb81" style="stroke:#000000;stroke-width:0.8;"/>
      </defs>
      <g>
       <use style="stroke:#000000;stroke-width:0.8;" x="69.218182" xlink:href="#m71e752bb81" y="252"/>
      </g>
     </g>
     <g id="text_1">
      <!-- 0.0 -->
      <g transform="translate(61.266619 266.598437)scale(0.1 -0.1)">
       <defs>
        <path d="M 31.78125 66.40625 
Q 24.171875 66.40625 20.328125 58.90625 
Q 16.5 51.421875 16.5 36.375 
Q 16.5 21.390625 20.328125 13.890625 
Q 24.171875 6.390625 31.78125 6.390625 
Q 39.453125 6.390625 43.28125 13.890625 
Q 47.125 21.390625 47.125 36.375 
Q 47.125 51.421875 43.28125 58.90625 
Q 39.453125 66.40625 31.78125 66.40625 
z
M 31.78125 74.21875 
Q 44.046875 74.21875 50.515625 64.515625 
Q 56.984375 54.828125 56.984375 36.375 
Q 56.984375 17.96875 50.515625 8.265625 
Q 44.046875 -1.421875 31.78125 -1.421875 
Q 19.53125 -1.421875 13.0625 8.265625 
Q 6.59375 17.96875 6.59375 36.375 
Q 6.59375 54.828125 13.0625 64.515625 
Q 19.53125 74.21875 31.78125 74.21875 
z
" id="DejaVuSans-48"/>
        <path d="M 10.6875 12.40625 
L 21 12.40625 
L 21 0 
L 10.6875 0 
z
" id="DejaVuSans-46"/>
       </defs>
       <use xlink:href="#DejaVuSans-48"/>
       <use x="63.623047" xlink:href="#DejaVuSans-46"/>
       <use x="95.410156" xlink:href="#DejaVuSans-48"/>
      </g>
     </g>
    </g>
    <g id="xtick_2">
     <g id="line2d_2">
      <g>
       <use style="stroke:#000000;stroke-width:0.8;" x="130.090909" xlink:href="#m71e752bb81" y="252"/>
      </g>
     </g>
     <g id="text_2">
      <!-- 0.2 -->
      <g transform="translate(122.139347 266.598437)scale(0.1 -0.1)">
       <defs>
        <path d="M 19.1875 8.296875 
L 53.609375 8.296875 
L 53.609375 0 
L 7.328125 0 
L 7.328125 8.296875 
Q 12.9375 14.109375 22.625 23.890625 
Q 32.328125 33.6875 34.8125 36.53125 
Q 39.546875 41.84375 41.421875 45.53125 
Q 43.3125 49.21875 43.3125 52.78125 
Q 43.3125 58.59375 39.234375 62.25 
Q 35.15625 65.921875 28.609375 65.921875 
Q 23.96875 65.921875 18.8125 64.3125 
Q 13.671875 62.703125 7.8125 59.421875 
L 7.8125 69.390625 
Q 13.765625 71.78125 18.9375 73 
Q 24.125 74.21875 28.421875 74.21875 
Q 39.75 74.21875 46.484375 68.546875 
Q 53.21875 62.890625 53.21875 53.421875 
Q 53.21875 48.921875 51.53125 44.890625 
Q 49.859375 40.875 45.40625 35.40625 
Q 44.1875 33.984375 37.640625 27.21875 
Q 31.109375 20.453125 19.1875 8.296875 
z
" id="DejaVuSans-50"/>
       </defs>
       <use xlink:href="#DejaVuSans-48"/>
       <use x="63.623047" xlink:href="#DejaVuSans-46"/>
       <use x="95.410156" xlink:href="#DejaVuSans-50"/>
      </g>
     </g>
    </g>
    <g id="xtick_3">
     <g id="line2d_3">
      <g>
       <use style="stroke:#000000;stroke-width:0.8;" x="190.963636" xlink:href="#m71e752bb81" y="252"/>
      </g>
     </g>
     <g id="text_3">
      <!-- 0.4 -->
      <g transform="translate(183.012074 266.598437)scale(0.1 -0.1)">
       <defs>
        <path d="M 37.796875 64.3125 
L 12.890625 25.390625 
L 37.796875 25.390625 
z
M 35.203125 72.90625 
L 47.609375 72.90625 
L 47.609375 25.390625 
L 58.015625 25.390625 
L 58.015625 17.1875 
L 47.609375 17.1875 
L 47.609375 0 
L 37.796875 0 
L 37.796875 17.1875 
L 4.890625 17.1875 
L 4.890625 26.703125 
z
" id="DejaVuSans-52"/>
       </defs>
       <use xlink:href="#DejaVuSans-48"/>
       <use x="63.623047" xlink:href="#DejaVuSans-46"/>
       <use x="95.410156" xlink:href="#DejaVuSans-52"/>
      </g>
     </g>
    </g>
    <g id="xtick_4">
     <g id="line2d_4">
      <g>
       <use style="stroke:#000000;stroke-width:0.8;" x="251.836364" xlink:href="#m71e752bb81" y="252"/>
      </g>
     </g>
     <g id="text_4">
      <!-- 0.6 -->
      <g transform="translate(243.884801 266.598437)scale(0.1 -0.1)">
       <defs>
        <path d="M 33.015625 40.375 
Q 26.375 40.375 22.484375 35.828125 
Q 18.609375 31.296875 18.609375 23.390625 
Q 18.609375 15.53125 22.484375 10.953125 
Q 26.375 6.390625 33.015625 6.390625 
Q 39.65625 6.390625 43.53125 10.953125 
Q 47.40625 15.53125 47.40625 23.390625 
Q 47.40625 31.296875 43.53125 35.828125 
Q 39.65625 40.375 33.015625 40.375 
z
M 52.59375 71.296875 
L 52.59375 62.3125 
Q 48.875 64.0625 45.09375 64.984375 
Q 41.3125 65.921875 37.59375 65.921875 
Q 27.828125 65.921875 22.671875 59.328125 
Q 17.53125 52.734375 16.796875 39.40625 
Q 19.671875 43.65625 24.015625 45.921875 
Q 28.375 48.1875 33.59375 48.1875 
Q 44.578125 48.1875 50.953125 41.515625 
Q 57.328125 34.859375 57.328125 23.390625 
Q 57.328125 12.15625 50.6875 5.359375 
Q 44.046875 -1.421875 33.015625 -1.421875 
Q 20.359375 -1.421875 13.671875 8.265625 
Q 6.984375 17.96875 6.984375 36.375 
Q 6.984375 53.65625 15.1875 63.9375 
Q 23.390625 74.21875 37.203125 74.21875 
Q 40.921875 74.21875 44.703125 73.484375 
Q 48.484375 72.75 52.59375 71.296875 
z
" id="DejaVuSans-54"/>
       </defs>
       <use xlink:href="#DejaVuSans-48"/>
       <use x="63.623047" xlink:href="#DejaVuSans-46"/>
       <use x="95.410156" xlink:href="#DejaVuSans-54"/>
      </g>
     </g>
    </g>
    <g id="xtick_5">
     <g id="line2d_5">
      <g>
       <use style="stroke:#000000;stroke-width:0.8;" x="312.709091" xlink:href="#m71e752bb81" y="252"/>
      </g>
     </g>
     <g id="text_5">
      <!-- 0.8 -->
      <g transform="translate(304.757528 266.598437)scale(0.1 -0.1)">
       <defs>
        <path d="M 31.78125 34.625 
Q 24.75 34.625 20.71875 30.859375 
Q 16.703125 27.09375 16.703125 20.515625 
Q 16.703125 13.921875 20.71875 10.15625 
Q 24.75 6.390625 31.78125 6.390625 
Q 38.8125 6.390625 42.859375 10.171875 
Q 46.921875 13.96875 46.921875 20.515625 
Q 46.921875 27.09375 42.890625 30.859375 
Q 38.875 34.625 31.78125 34.625 
z
M 21.921875 38.8125 
Q 15.578125 40.375 12.03125 44.71875 
Q 8.5 49.078125 8.5 55.328125 
Q 8.5 64.0625 14.71875 69.140625 
Q 20.953125 74.21875 31.78125 74.21875 
Q 42.671875 74.21875 48.875 69.140625 
Q 55.078125 64.0625 55.078125 55.328125 
Q 55.078125 49.078125 51.53125 44.71875 
Q 48 40.375 41.703125 38.8125 
Q 48.828125 37.15625 52.796875 32.3125 
Q 56.78125 27.484375 56.78125 20.515625 
Q 56.78125 9.90625 50.3125 4.234375 
Q 43.84375 -1.421875 31.78125 -1.421875 
Q 19.734375 -1.421875 13.25 4.234375 
Q 6.78125 9.90625 6.78125 20.515625 
Q 6.78125 27.484375 10.78125 32.3125 
Q 14.796875 37.15625 21.921875 38.8125 
z
M 18.3125 54.390625 
Q 18.3125 48.734375 21.84375 45.5625 
Q 25.390625 42.390625 31.78125 42.390625 
Q 38.140625 42.390625 41.71875 45.5625 
Q 45.3125 48.734375 45.3125 54.390625 
Q 45.3125 60.0625 41.71875 63.234375 
Q 38.140625 66.40625 31.78125 66.40625 
Q 25.390625 66.40625 21.84375 63.234375 
Q 18.3125 60.0625 18.3125 54.390625 
z
" id="DejaVuSans-56"/>
       </defs>
       <use xlink:href="#DejaVuSans-48"/>
       <use x="63.623047" xlink:href="#DejaVuSans-46"/>
       <use x="95.410156" xlink:href="#DejaVuSans-56"/>
      </g>
     </g>
    </g>
    <g id="xtick_6">
     <g id="line2d_6">
      <g>
       <use style="stroke:#000000;stroke-width:0.8;" x="373.581818" xlink:href="#m71e752bb81" y="252"/>
      </g>
     </g>
     <g id="text_6">
      <!-- 1.0 -->
      <g transform="translate(365.630256 266.598437)scale(0.1 -0.1)">
       <defs>
        <path d="M 12.40625 8.296875 
L 28.515625 8.296875 
L 28.515625 63.921875 
L 10.984375 60.40625 
L 10.984375 69.390625 
L 28.421875 72.90625 
L 38.28125 72.90625 
L 38.28125 8.296875 
L 54.390625 8.296875 
L 54.390625 0 
L 12.40625 0 
z
" id="DejaVuSans-49"/>
       </defs>
       <use xlink:href="#DejaVuSans-49"/>
       <use x="63.623047" xlink:href="#DejaVuSans-46"/>
       <use x="95.410156" xlink:href="#DejaVuSans-48"/>
      </g>
     </g>
    </g>
   </g>
   <g id="matplotlib.axis_2">
    <g id="ytick_1">
     <g id="line2d_7">
      <defs>
       <path d="M 0 0 
L -3.5 0 
" id="mb70d6de7f4" style="stroke:#000000;stroke-width:0.8;"/>
      </defs>
      <g>
       <use style="stroke:#000000;stroke-width:0.8;" x="54" xlink:href="#mb70d6de7f4" y="239.05169"/>
      </g>
     </g>
     <g id="text_7">
      <!-- −2000 -->
      <g transform="translate(13.170313 242.850909)scale(0.1 -0.1)">
       <defs>
        <path d="M 10.59375 35.5 
L 73.1875 35.5 
L 73.1875 27.203125 
L 10.59375 27.203125 
z
" id="DejaVuSans-8722"/>
       </defs>
       <use xlink:href="#DejaVuSans-8722"/>
       <use x="83.789062" xlink:href="#DejaVuSans-50"/>
       <use x="147.412109" xlink:href="#DejaVuSans-48"/>
       <use x="211.035156" xlink:href="#DejaVuSans-48"/>
       <use x="274.658203" xlink:href="#DejaVuSans-48"/>
      </g>
     </g>
    </g>
    <g id="ytick_2">
     <g id="line2d_8">
      <g>
       <use style="stroke:#000000;stroke-width:0.8;" x="54" xlink:href="#mb70d6de7f4" y="213.318394"/>
      </g>
     </g>
     <g id="text_8">
      <!-- 0 -->
      <g transform="translate(40.6375 217.117613)scale(0.1 -0.1)">
       <use xlink:href="#DejaVuSans-48"/>
      </g>
     </g>
    </g>
    <g id="ytick_3">
     <g id="line2d_9">
      <g>
       <use style="stroke:#000000;stroke-width:0.8;" x="54" xlink:href="#mb70d6de7f4" y="187.585097"/>
      </g>
     </g>
     <g id="text_9">
      <!-- 2000 -->
      <g transform="translate(21.55 191.384316)scale(0.1 -0.1)">
       <use xlink:href="#DejaVuSans-50"/>
       <use x="63.623047" xlink:href="#DejaVuSans-48"/>
       <use x="127.246094" xlink:href="#DejaVuSans-48"/>
       <use x="190.869141" xlink:href="#DejaVuSans-48"/>
      </g>
     </g>
    </g>
    <g id="ytick_4">
     <g id="line2d_10">
      <g>
       <use style="stroke:#000000;stroke-width:0.8;" x="54" xlink:href="#mb70d6de7f4" y="161.851801"/>
      </g>
     </g>
     <g id="text_10">
      <!-- 4000 -->
      <g transform="translate(21.55 165.65102)scale(0.1 -0.1)">
       <use xlink:href="#DejaVuSans-52"/>
       <use x="63.623047" xlink:href="#DejaVuSans-48"/>
       <use x="127.246094" xlink:href="#DejaVuSans-48"/>
       <use x="190.869141" xlink:href="#DejaVuSans-48"/>
      </g>
     </g>
    </g>
    <g id="ytick_5">
     <g id="line2d_11">
      <g>
       <use style="stroke:#000000;stroke-width:0.8;" x="54" xlink:href="#mb70d6de7f4" y="136.118505"/>
      </g>
     </g>
     <g id="text_11">
      <!-- 6000 -->
      <g transform="translate(21.55 139.917723)scale(0.1 -0.1)">
       <use xlink:href="#DejaVuSans-54"/>
       <use x="63.623047" xlink:href="#DejaVuSans-48"/>
       <use x="127.246094" xlink:href="#DejaVuSans-48"/>
       <use x="190.869141" xlink:href="#DejaVuSans-48"/>
      </g>
     </g>
    </g>
    <g id="ytick_6">
     <g id="line2d_12">
      <g>
       <use style="stroke:#000000;stroke-width:0.8;" x="54" xlink:href="#mb70d6de7f4" y="110.385208"/>
      </g>
     </g>
     <g id="text_12">
      <!-- 8000 -->
      <g transform="translate(21.55 114.184427)scale(0.1 -0.1)">
       <use xlink:href="#DejaVuSans-56"/>
       <use x="63.623047" xlink:href="#DejaVuSans-48"/>
       <use x="127.246094" xlink:href="#DejaVuSans-48"/>
       <use x="190.869141" xlink:href="#DejaVuSans-48"/>
      </g>
     </g>
    </g>
    <g id="ytick_7">
     <g id="line2d_13">
      <g>
       <use style="stroke:#000000;stroke-width:0.8;" x="54" xlink:href="#mb70d6de7f4" y="84.651912"/>
      </g>
     </g>
     <g id="text_13">
      <!-- 10000 -->
      <g transform="translate(15.1875 88.451131)scale(0.1 -0.1)">
       <use xlink:href="#DejaVuSans-49"/>
       <use x="63.623047" xlink:href="#DejaVuSans-48"/>
       <use x="127.246094" xlink:href="#DejaVuSans-48"/>
       <use x="190.869141" xlink:href="#DejaVuSans-48"/>
       <use x="254.492188" xlink:href="#DejaVuSans-48"/>
      </g>
     </g>
    </g>
    <g id="ytick_8">
     <g id="line2d_14">
      <g>
       <use style="stroke:#000000;stroke-width:0.8;" x="54" xlink:href="#mb70d6de7f4" y="58.918616"/>
      </g>
     </g>
     <g id="text_14">
      <!-- 12000 -->
      <g transform="translate(15.1875 62.717834)scale(0.1 -0.1)">
       <use xlink:href="#DejaVuSans-49"/>
       <use x="63.623047" xlink:href="#DejaVuSans-50"/>
       <use x="127.246094" xlink:href="#DejaVuSans-48"/>
       <use x="190.869141" xlink:href="#DejaVuSans-48"/>
       <use x="254.492188" xlink:href="#DejaVuSans-48"/>
      </g>
     </g>
    </g>
   </g>
   <g id="line2d_15">
    <path clip-path="url(#p9e9faa486e)" d="M 69.218182 212.276195 
L 72.089537 212.584995 
L 73.525214 211.439863 
L 74.960892 209.960199 
L 76.396569 208.107401 
L 77.832247 207.116669 
L 79.267925 207.155269 
L 80.703602 208.660667 
L 82.13928 207.605602 
L 85.010635 203.436808 
L 86.446312 200.464612 
L 87.88199 199.769813 
L 89.317667 197.157884 
L 90.753345 197.929883 
L 92.189022 195.575286 
L 93.6247 183.364837 
L 95.060377 182.785838 
L 96.496055 178.59131 
L 97.931732 173.508984 
L 99.36741 172.286653 
L 100.803087 177.008713 
L 102.238765 176.506913 
L 103.674443 158.390673 
L 105.11012 155.251211 
L 106.545798 150.104551 
L 107.981475 150.696417 
L 109.417153 150.078818 
L 110.85283 161.684535 
L 112.288508 167.088527 
L 113.724185 145.343891 
L 115.159863 143.323828 
L 116.59554 147.286755 
L 118.031218 150.79935 
L 119.466895 157.850273 
L 120.902573 167.294393 
L 122.33825 168.439525 
L 123.773928 159.484338 
L 125.209605 157.721607 
L 126.645283 148.238887 
L 128.080961 145.266692 
L 129.516638 149.577019 
L 130.952316 152.536348 
L 132.387993 163.730332 
L 133.823671 150.79935 
L 135.259348 152.060282 
L 136.695026 142.731962 
L 138.130703 147.093756 
L 139.566381 149.474085 
L 141.002058 165.094196 
L 142.437736 168.645391 
L 143.873413 152.742214 
L 145.309091 152.446281 
L 146.744768 143.349561 
L 148.180446 149.435486 
L 149.616123 152.369081 
L 151.051801 171.707654 
L 152.487479 175.014382 
L 153.923156 169.751923 
L 155.358834 165.943395 
L 156.794511 164.090598 
L 158.230189 164.88833 
L 159.665866 173.920717 
L 161.101544 185.513567 
L 162.537221 183.416303 
L 163.972899 167.204327 
L 165.408576 169.597523 
L 166.844254 170.755522 
L 168.279931 179.569176 
L 169.715609 180.791507 
L 171.151286 186.594365 
L 172.586964 189.682361 
L 174.022642 180.058108 
L 175.458319 174.036517 
L 176.893997 178.398311 
L 178.329674 180.186775 
L 181.201029 193.696755 
L 182.636707 195.755419 
L 184.072384 192.422957 
L 185.508062 191.856825 
L 186.943739 189.772428 
L 188.379417 190.750293 
L 189.815094 193.683889 
L 191.250772 198.907748 
L 192.686449 199.422414 
L 194.122127 194.86762 
L 195.557804 194.082755 
L 196.993482 195.794019 
L 198.42916 197.24795 
L 199.864837 198.869148 
L 201.300515 202.973609 
L 202.736192 204.04154 
L 204.17187 199.255147 
L 205.607547 198.444548 
L 207.043225 197.929883 
L 208.478902 200.297346 
L 209.91458 199.808413 
L 211.350257 201.867077 
L 212.785935 202.754876 
L 214.221612 199.924213 
L 215.65729 199.113614 
L 217.092967 200.271612 
L 218.528645 200.130079 
L 219.964322 200.567545 
L 221.4 204.491873 
L 222.835678 205.109472 
L 224.271355 201.789877 
L 225.707033 201.918543 
L 227.14271 203.333875 
L 230.014065 204.672006 
L 231.449743 204.929339 
L 232.88542 207.567002 
L 234.321098 203.938607 
L 235.756775 205.379672 
L 237.192453 204.967939 
L 240.063808 205.932938 
L 241.499485 208.133135 
L 244.37084 204.19594 
L 245.806518 205.559805 
L 247.242196 204.27314 
L 248.677873 204.105874 
L 250.113551 206.035871 
L 251.549228 207.554135 
L 252.984906 208.596334 
L 254.420583 203.874274 
L 255.856261 204.440407 
L 257.291938 203.398208 
L 258.727616 204.260273 
L 260.163293 205.855738 
L 261.598971 206.910803 
L 263.034648 207.618469 
L 264.470326 202.870675 
L 265.906003 203.243808 
L 267.341681 203.063675 
L 268.777358 203.012209 
L 270.213036 203.436808 
L 271.648714 206.602003 
L 273.084391 206.138804 
L 274.520069 202.291676 
L 275.955746 202.458943 
L 277.391424 199.949946 
L 278.827101 201.416744 
L 280.262779 204.633406 
L 281.698456 206.331804 
L 283.134134 206.164537 
L 284.569811 199.89848 
L 286.005489 200.168679 
L 287.441166 199.654013 
L 288.876844 199.370947 
L 290.312521 201.185145 
L 291.748199 204.35034 
L 293.183877 205.392538 
L 294.619554 194.352954 
L 297.490909 197.801216 
L 298.926587 198.573215 
L 300.362264 198.290149 
L 301.797942 204.35034 
L 303.233619 205.611271 
L 304.669297 196.797617 
L 306.104974 199.370947 
L 307.540652 197.338017 
L 308.976329 194.455888 
L 310.412007 197.891283 
L 311.847684 202.677676 
L 313.283362 202.716276 
L 314.719039 197.59535 
L 316.154717 197.273683 
L 317.590395 195.896952 
L 319.026072 193.194956 
L 320.46175 192.320024 
L 321.897427 197.51815 
L 323.333105 198.367349 
L 324.768782 194.018421 
L 327.640137 174.731316 
L 329.075815 173.457518 
L 330.511492 174.229517 
L 331.94717 180.585641 
L 333.382847 181.833706 
L 334.818525 163.614532 
L 336.254202 170.884188 
L 337.68988 170.459589 
L 339.125557 167.024194 
L 340.561235 170.987121 
L 341.996913 178.93871 
L 343.43259 185.719433 
L 344.868268 169.68759 
L 346.303945 167.590326 
L 347.739623 157.078275 
L 349.1753 153.655746 
L 350.610978 149.448352 
L 352.046655 150.64495 
L 353.482333 145.047958 
L 354.91801 141.406697 
L 356.353688 130.868912 
L 357.789365 122.672857 
L 359.225043 115.467534 
L 360.66072 120.112394 
L 362.096398 126.571452 
L 363.532075 123.766522 
L 364.967753 86.105843 
L 366.403431 81.937049 
L 367.839108 53.424557 
L 369.274786 48.084898 
L 370.710463 44.443636 
L 372.146141 84.626179 
L 373.581818 82.837715 
L 373.581818 82.837715 
" style="fill:none;stroke:#1f77b4;stroke-linecap:square;stroke-width:1.5;"/>
   </g>
   <g id="line2d_16">
    <path clip-path="url(#p9e9faa486e)" d="M 69.218182 231.70124 
L 72.089537 223.389842 
L 74.960892 215.644681 
L 77.832247 208.450235 
L 80.703602 201.79098 
L 83.574957 195.651394 
L 86.446312 190.015955 
L 89.317667 184.869138 
L 92.189022 180.19542 
L 95.060377 175.97928 
L 97.931732 172.205194 
L 100.803087 168.857638 
L 103.674443 165.921091 
L 106.545798 163.380028 
L 109.417153 161.218928 
L 112.288508 159.422267 
L 115.159863 157.974522 
L 118.031218 156.86017 
L 120.902573 156.063688 
L 123.773928 155.569553 
L 126.645283 155.362243 
L 129.516638 155.426234 
L 132.387993 155.746003 
L 135.259348 156.306028 
L 138.130703 157.090785 
L 141.002058 158.084751 
L 143.873413 159.272404 
L 146.744768 160.63822 
L 151.051801 162.987045 
L 155.358834 165.649421 
L 159.665866 168.572958 
L 165.408576 172.786707 
L 172.586964 178.386636 
L 188.379417 190.869517 
L 194.122127 195.075048 
L 198.42916 197.976765 
L 202.736192 200.58394 
L 205.607547 202.123489 
L 208.478902 203.479731 
L 211.350257 204.631707 
L 214.221612 205.558458 
L 217.092967 206.239023 
L 219.964322 206.652444 
L 222.835678 206.779189 
L 225.707033 206.632602 
L 228.578388 206.258895 
L 232.88542 205.376704 
L 238.62813 203.850201 
L 245.806518 201.915157 
L 250.113551 201.025634 
L 252.984906 200.644231 
L 255.856261 200.45682 
L 258.727616 200.441404 
L 263.034648 200.686963 
L 267.341681 201.181146 
L 273.084391 202.083316 
L 284.569811 203.983743 
L 288.876844 204.475764 
L 293.183877 204.718296 
L 296.055232 204.700382 
L 298.926587 204.510089 
L 301.797942 204.122818 
L 304.669297 203.51397 
L 307.540652 202.658949 
L 310.412007 201.533156 
L 313.283362 200.111992 
L 316.154717 198.37086 
L 319.026072 196.285161 
L 321.897427 193.830296 
L 324.768782 190.981669 
L 327.640137 187.71468 
L 330.511492 184.004732 
L 333.382847 179.827226 
L 336.254202 175.157564 
L 339.125557 169.971148 
L 341.996913 164.24338 
L 344.868268 157.949661 
L 347.739623 151.065394 
L 350.610978 143.56598 
L 353.482333 135.42682 
L 356.353688 126.623318 
L 359.225043 117.130874 
L 362.096398 106.92489 
L 364.967753 95.980769 
L 367.839108 84.273912 
L 370.710463 71.779721 
L 373.581818 58.473597 
L 373.581818 58.473597 
" style="fill:none;stroke:#ff7f0e;stroke-linecap:square;stroke-width:1.5;"/>
   </g>
   <g id="line2d_17">
    <path clip-path="url(#p9e9faa486e)" d="M 69.218182 214.230866 
L 70.653859 211.562833 
L 72.089537 212.982131 
L 73.525214 211.646662 
L 74.960892 211.956231 
L 76.396569 213.457128 
L 77.832247 213.538091 
L 79.267925 212.844729 
L 80.703602 215.538793 
L 82.13928 217.351419 
L 83.574957 211.780273 
L 85.010635 211.693563 
L 86.446312 210.351199 
L 87.88199 210.753554 
L 89.317667 211.79469 
L 90.753345 218.529241 
L 92.189022 220.612891 
L 93.6247 211.879208 
L 95.060377 211.500723 
L 96.496055 208.091711 
L 97.931732 208.747573 
L 99.36741 211.046128 
L 100.803087 220.63721 
L 102.238765 222.884124 
L 103.674443 211.947204 
L 105.11012 211.37007 
L 106.545798 206.584549 
L 107.981475 207.432182 
L 109.417153 210.564421 
L 110.85283 221.965733 
L 112.288508 224.282693 
L 113.724185 211.987998 
L 115.159863 211.293961 
L 116.59554 205.735596 
L 118.031218 206.719416 
L 119.466895 210.314949 
L 120.902573 222.617844 
L 122.33825 224.926174 
L 123.773928 212.005326 
L 125.209605 211.264752 
L 126.645283 205.450735 
L 128.080961 206.521309 
L 129.516638 210.263089 
L 130.952316 222.696576 
L 132.387993 224.932144 
L 133.823671 212.002926 
L 135.259348 211.2748 
L 136.695026 205.63585 
L 138.130703 206.749896 
L 139.566381 210.374221 
L 141.002058 222.304962 
L 142.437736 224.418179 
L 143.873413 211.984535 
L 145.309091 211.316463 
L 146.744768 206.196824 
L 148.180446 207.317212 
L 149.616123 210.613723 
L 151.051801 221.546037 
L 152.487479 223.501855 
L 153.923156 211.95389 
L 155.358834 211.382098 
L 156.794511 207.03954 
L 158.230189 208.135289 
L 159.665866 210.946973 
L 161.101544 220.522834 
L 162.537221 222.300747 
L 163.972899 211.914727 
L 165.408576 211.464061 
L 166.844254 208.069882 
L 168.279931 209.116164 
L 169.715609 211.339351 
L 171.151286 219.338386 
L 172.586964 220.932432 
L 174.022642 211.870783 
L 175.458319 211.554709 
L 176.893997 209.193733 
L 178.329674 210.17187 
L 179.765352 211.756235 
L 181.201029 218.095726 
L 182.636707 219.514487 
L 184.072384 211.825796 
L 185.508062 211.6464 
L 186.943739 210.316977 
L 189.815094 212.163004 
L 191.250772 216.897889 
L 192.686449 218.164521 
L 194.122127 211.783509 
L 195.557804 211.731448 
L 196.993482 211.34431 
L 198.42916 212.153809 
L 199.864837 212.523632 
L 201.300515 215.854452 
L 202.736192 217.011039 
L 204.17187 211.748134 
L 205.607547 211.800957 
L 207.043225 212.162674 
L 208.478902 212.881138 
L 209.91458 212.79416 
L 211.350257 215.09902 
L 212.785935 216.208892 
L 214.221612 211.724647 
L 215.65729 211.84468 
L 217.092967 212.645341 
L 218.528645 213.277742 
L 219.964322 212.927844 
L 221.4 214.770711 
L 222.835678 215.916582 
L 224.271355 211.718028 
L 225.707033 211.852739 
L 227.14271 212.678168 
L 228.578388 213.248461 
L 230.014065 212.893995 
L 231.449743 214.932753 
L 232.88542 216.164346 
L 234.321098 211.727666 
L 235.756775 211.829898 
L 238.62813 212.930103 
L 240.063808 212.761033 
L 241.499485 215.344807 
L 242.935163 216.645857 
L 244.37084 211.743095 
L 245.806518 211.798565 
L 247.242196 211.987079 
L 248.677873 212.591141 
L 250.113551 212.635141 
L 251.549228 215.690642 
L 252.984906 217.000388 
L 254.420583 211.752895 
L 257.291938 211.823753 
L 258.727616 212.479561 
L 260.163293 212.607304 
L 261.598971 215.727289 
L 263.034648 216.992839 
L 264.470326 211.751207 
L 267.341681 211.930095 
L 268.777358 212.604511 
L 270.213036 212.665421 
L 271.648714 215.53106 
L 273.084391 216.746158 
L 274.520069 211.742764 
L 275.955746 211.806238 
L 277.391424 212.163938 
L 278.827101 212.828716 
L 280.262779 212.754765 
L 281.698456 215.265222 
L 283.134134 216.44666 
L 284.569811 211.733489 
L 286.005489 211.824463 
L 288.876844 213.012784 
L 290.312521 212.820475 
L 291.748199 215.093046 
L 293.183877 216.280661 
L 294.619554 211.729302 
L 296.055232 211.83055 
L 298.926587 213.01732 
L 300.362264 212.807688 
L 301.797942 215.177801 
L 303.233619 216.434473 
L 304.669297 211.736126 
L 306.104974 211.812387 
L 307.540652 212.139074 
L 308.976329 212.702933 
L 310.412007 212.661542 
L 311.847684 215.682759 
L 313.283362 217.094414 
L 314.719039 211.759883 
L 316.154717 211.757863 
L 317.590395 211.391522 
L 319.026072 211.930229 
L 320.46175 212.327174 
L 321.897427 216.771188 
L 323.333105 218.446797 
L 324.768782 211.806493 
L 326.20446 211.654867 
L 327.640137 210.02577 
L 329.075815 210.559815 
L 330.511492 211.749724 
L 331.94717 218.60636 
L 333.382847 220.677936 
L 334.818525 211.881879 
L 336.254202 211.491287 
L 337.68988 207.892679 
L 339.125557 208.452298 
L 340.561235 210.874329 
L 341.996913 221.351544 
L 343.43259 223.974148 
L 344.868268 211.991962 
L 346.303945 211.255012 
L 347.739623 204.843108 
L 349.1753 205.468285 
L 350.610978 209.646126 
L 352.046655 225.170011 
L 353.482333 228.521747 
L 354.91801 212.142664 
L 356.353688 210.933931 
L 357.789365 200.727917 
L 359.225043 201.468383 
L 360.66072 208.010254 
L 362.096398 230.22503 
L 363.532075 234.507047 
L 364.967753 212.339907 
L 366.403431 210.515933 
L 367.839108 195.397966 
L 369.274786 196.313199 
L 370.710463 205.911851 
L 372.146141 236.679871 
L 373.581818 242.116364 
L 373.581818 242.116364 
" style="fill:none;stroke:#2ca02c;stroke-linecap:square;stroke-width:1.5;"/>
   </g>
   <g id="patch_3">
    <path d="M 54 252 
L 54 34.56 
" style="fill:none;stroke:#000000;stroke-linecap:square;stroke-linejoin:miter;stroke-width:0.8;"/>
   </g>
   <g id="patch_4">
    <path d="M 388.8 252 
L 388.8 34.56 
" style="fill:none;stroke:#000000;stroke-linecap:square;stroke-linejoin:miter;stroke-width:0.8;"/>
   </g>
   <g id="patch_5">
    <path d="M 54 252 
L 388.8 252 
" style="fill:none;stroke:#000000;stroke-linecap:square;stroke-linejoin:miter;stroke-width:0.8;"/>
   </g>
   <g id="patch_6">
    <path d="M 54 34.56 
L 388.8 34.56 
" style="fill:none;stroke:#000000;stroke-linecap:square;stroke-linejoin:miter;stroke-width:0.8;"/>
   </g>
   <g id="text_15">
    <!-- Decomposition of the Time Series -->
    <g transform="translate(120.118125 28.56)scale(0.12 -0.12)">
     <defs>
      <path d="M 19.671875 64.796875 
L 19.671875 8.109375 
L 31.59375 8.109375 
Q 46.6875 8.109375 53.6875 14.9375 
Q 60.6875 21.78125 60.6875 36.53125 
Q 60.6875 51.171875 53.6875 57.984375 
Q 46.6875 64.796875 31.59375 64.796875 
z
M 9.8125 72.90625 
L 30.078125 72.90625 
Q 51.265625 72.90625 61.171875 64.09375 
Q 71.09375 55.28125 71.09375 36.53125 
Q 71.09375 17.671875 61.125 8.828125 
Q 51.171875 0 30.078125 0 
L 9.8125 0 
z
" id="DejaVuSans-68"/>
      <path d="M 56.203125 29.59375 
L 56.203125 25.203125 
L 14.890625 25.203125 
Q 15.484375 15.921875 20.484375 11.0625 
Q 25.484375 6.203125 34.421875 6.203125 
Q 39.59375 6.203125 44.453125 7.46875 
Q 49.3125 8.734375 54.109375 11.28125 
L 54.109375 2.78125 
Q 49.265625 0.734375 44.1875 -0.34375 
Q 39.109375 -1.421875 33.890625 -1.421875 
Q 20.796875 -1.421875 13.15625 6.1875 
Q 5.515625 13.8125 5.515625 26.8125 
Q 5.515625 40.234375 12.765625 48.109375 
Q 20.015625 56 32.328125 56 
Q 43.359375 56 49.78125 48.890625 
Q 56.203125 41.796875 56.203125 29.59375 
z
M 47.21875 32.234375 
Q 47.125 39.59375 43.09375 43.984375 
Q 39.0625 48.390625 32.421875 48.390625 
Q 24.90625 48.390625 20.390625 44.140625 
Q 15.875 39.890625 15.1875 32.171875 
z
" id="DejaVuSans-101"/>
      <path d="M 48.78125 52.59375 
L 48.78125 44.1875 
Q 44.96875 46.296875 41.140625 47.34375 
Q 37.3125 48.390625 33.40625 48.390625 
Q 24.65625 48.390625 19.8125 42.84375 
Q 14.984375 37.3125 14.984375 27.296875 
Q 14.984375 17.28125 19.8125 11.734375 
Q 24.65625 6.203125 33.40625 6.203125 
Q 37.3125 6.203125 41.140625 7.25 
Q 44.96875 8.296875 48.78125 10.40625 
L 48.78125 2.09375 
Q 45.015625 0.34375 40.984375 -0.53125 
Q 36.96875 -1.421875 32.421875 -1.421875 
Q 20.0625 -1.421875 12.78125 6.34375 
Q 5.515625 14.109375 5.515625 27.296875 
Q 5.515625 40.671875 12.859375 48.328125 
Q 20.21875 56 33.015625 56 
Q 37.15625 56 41.109375 55.140625 
Q 45.0625 54.296875 48.78125 52.59375 
z
" id="DejaVuSans-99"/>
      <path d="M 30.609375 48.390625 
Q 23.390625 48.390625 19.1875 42.75 
Q 14.984375 37.109375 14.984375 27.296875 
Q 14.984375 17.484375 19.15625 11.84375 
Q 23.34375 6.203125 30.609375 6.203125 
Q 37.796875 6.203125 41.984375 11.859375 
Q 46.1875 17.53125 46.1875 27.296875 
Q 46.1875 37.015625 41.984375 42.703125 
Q 37.796875 48.390625 30.609375 48.390625 
z
M 30.609375 56 
Q 42.328125 56 49.015625 48.375 
Q 55.71875 40.765625 55.71875 27.296875 
Q 55.71875 13.875 49.015625 6.21875 
Q 42.328125 -1.421875 30.609375 -1.421875 
Q 18.84375 -1.421875 12.171875 6.21875 
Q 5.515625 13.875 5.515625 27.296875 
Q 5.515625 40.765625 12.171875 48.375 
Q 18.84375 56 30.609375 56 
z
" id="DejaVuSans-111"/>
      <path d="M 52 44.1875 
Q 55.375 50.25 60.0625 53.125 
Q 64.75 56 71.09375 56 
Q 79.640625 56 84.28125 50.015625 
Q 88.921875 44.046875 88.921875 33.015625 
L 88.921875 0 
L 79.890625 0 
L 79.890625 32.71875 
Q 79.890625 40.578125 77.09375 44.375 
Q 74.3125 48.1875 68.609375 48.1875 
Q 61.625 48.1875 57.5625 43.546875 
Q 53.515625 38.921875 53.515625 30.90625 
L 53.515625 0 
L 44.484375 0 
L 44.484375 32.71875 
Q 44.484375 40.625 41.703125 44.40625 
Q 38.921875 48.1875 33.109375 48.1875 
Q 26.21875 48.1875 22.15625 43.53125 
Q 18.109375 38.875 18.109375 30.90625 
L 18.109375 0 
L 9.078125 0 
L 9.078125 54.6875 
L 18.109375 54.6875 
L 18.109375 46.1875 
Q 21.1875 51.21875 25.484375 53.609375 
Q 29.78125 56 35.6875 56 
Q 41.65625 56 45.828125 52.96875 
Q 50 49.953125 52 44.1875 
z
" id="DejaVuSans-109"/>
      <path d="M 18.109375 8.203125 
L 18.109375 -20.796875 
L 9.078125 -20.796875 
L 9.078125 54.6875 
L 18.109375 54.6875 
L 18.109375 46.390625 
Q 20.953125 51.265625 25.265625 53.625 
Q 29.59375 56 35.59375 56 
Q 45.5625 56 51.78125 48.09375 
Q 58.015625 40.1875 58.015625 27.296875 
Q 58.015625 14.40625 51.78125 6.484375 
Q 45.5625 -1.421875 35.59375 -1.421875 
Q 29.59375 -1.421875 25.265625 0.953125 
Q 20.953125 3.328125 18.109375 8.203125 
z
M 48.6875 27.296875 
Q 48.6875 37.203125 44.609375 42.84375 
Q 40.53125 48.484375 33.40625 48.484375 
Q 26.265625 48.484375 22.1875 42.84375 
Q 18.109375 37.203125 18.109375 27.296875 
Q 18.109375 17.390625 22.1875 11.75 
Q 26.265625 6.109375 33.40625 6.109375 
Q 40.53125 6.109375 44.609375 11.75 
Q 48.6875 17.390625 48.6875 27.296875 
z
" id="DejaVuSans-112"/>
      <path d="M 44.28125 53.078125 
L 44.28125 44.578125 
Q 40.484375 46.53125 36.375 47.5 
Q 32.28125 48.484375 27.875 48.484375 
Q 21.1875 48.484375 17.84375 46.4375 
Q 14.5 44.390625 14.5 40.28125 
Q 14.5 37.15625 16.890625 35.375 
Q 19.28125 33.59375 26.515625 31.984375 
L 29.59375 31.296875 
Q 39.15625 29.25 43.1875 25.515625 
Q 47.21875 21.78125 47.21875 15.09375 
Q 47.21875 7.46875 41.1875 3.015625 
Q 35.15625 -1.421875 24.609375 -1.421875 
Q 20.21875 -1.421875 15.453125 -0.5625 
Q 10.6875 0.296875 5.421875 2 
L 5.421875 11.28125 
Q 10.40625 8.6875 15.234375 7.390625 
Q 20.0625 6.109375 24.8125 6.109375 
Q 31.15625 6.109375 34.5625 8.28125 
Q 37.984375 10.453125 37.984375 14.40625 
Q 37.984375 18.0625 35.515625 20.015625 
Q 33.0625 21.96875 24.703125 23.78125 
L 21.578125 24.515625 
Q 13.234375 26.265625 9.515625 29.90625 
Q 5.8125 33.546875 5.8125 39.890625 
Q 5.8125 47.609375 11.28125 51.796875 
Q 16.75 56 26.8125 56 
Q 31.78125 56 36.171875 55.265625 
Q 40.578125 54.546875 44.28125 53.078125 
z
" id="DejaVuSans-115"/>
      <path d="M 9.421875 54.6875 
L 18.40625 54.6875 
L 18.40625 0 
L 9.421875 0 
z
M 9.421875 75.984375 
L 18.40625 75.984375 
L 18.40625 64.59375 
L 9.421875 64.59375 
z
" id="DejaVuSans-105"/>
      <path d="M 18.3125 70.21875 
L 18.3125 54.6875 
L 36.8125 54.6875 
L 36.8125 47.703125 
L 18.3125 47.703125 
L 18.3125 18.015625 
Q 18.3125 11.328125 20.140625 9.421875 
Q 21.96875 7.515625 27.59375 7.515625 
L 36.8125 7.515625 
L 36.8125 0 
L 27.59375 0 
Q 17.1875 0 13.234375 3.875 
Q 9.28125 7.765625 9.28125 18.015625 
L 9.28125 47.703125 
L 2.6875 47.703125 
L 2.6875 54.6875 
L 9.28125 54.6875 
L 9.28125 70.21875 
z
" id="DejaVuSans-116"/>
      <path d="M 54.890625 33.015625 
L 54.890625 0 
L 45.90625 0 
L 45.90625 32.71875 
Q 45.90625 40.484375 42.875 44.328125 
Q 39.84375 48.1875 33.796875 48.1875 
Q 26.515625 48.1875 22.3125 43.546875 
Q 18.109375 38.921875 18.109375 30.90625 
L 18.109375 0 
L 9.078125 0 
L 9.078125 54.6875 
L 18.109375 54.6875 
L 18.109375 46.1875 
Q 21.34375 51.125 25.703125 53.5625 
Q 30.078125 56 35.796875 56 
Q 45.21875 56 50.046875 50.171875 
Q 54.890625 44.34375 54.890625 33.015625 
z
" id="DejaVuSans-110"/>
      <path id="DejaVuSans-32"/>
      <path d="M 37.109375 75.984375 
L 37.109375 68.5 
L 28.515625 68.5 
Q 23.6875 68.5 21.796875 66.546875 
Q 19.921875 64.59375 19.921875 59.515625 
L 19.921875 54.6875 
L 34.71875 54.6875 
L 34.71875 47.703125 
L 19.921875 47.703125 
L 19.921875 0 
L 10.890625 0 
L 10.890625 47.703125 
L 2.296875 47.703125 
L 2.296875 54.6875 
L 10.890625 54.6875 
L 10.890625 58.5 
Q 10.890625 67.625 15.140625 71.796875 
Q 19.390625 75.984375 28.609375 75.984375 
z
" id="DejaVuSans-102"/>
      <path d="M 54.890625 33.015625 
L 54.890625 0 
L 45.90625 0 
L 45.90625 32.71875 
Q 45.90625 40.484375 42.875 44.328125 
Q 39.84375 48.1875 33.796875 48.1875 
Q 26.515625 48.1875 22.3125 43.546875 
Q 18.109375 38.921875 18.109375 30.90625 
L 18.109375 0 
L 9.078125 0 
L 9.078125 75.984375 
L 18.109375 75.984375 
L 18.109375 46.1875 
Q 21.34375 51.125 25.703125 53.5625 
Q 30.078125 56 35.796875 56 
Q 45.21875 56 50.046875 50.171875 
Q 54.890625 44.34375 54.890625 33.015625 
z
" id="DejaVuSans-104"/>
      <path d="M -0.296875 72.90625 
L 61.375 72.90625 
L 61.375 64.59375 
L 35.5 64.59375 
L 35.5 0 
L 25.59375 0 
L 25.59375 64.59375 
L -0.296875 64.59375 
z
" id="DejaVuSans-84"/>
      <path d="M 53.515625 70.515625 
L 53.515625 60.890625 
Q 47.90625 63.578125 42.921875 64.890625 
Q 37.9375 66.21875 33.296875 66.21875 
Q 25.25 66.21875 20.875 63.09375 
Q 16.5 59.96875 16.5 54.203125 
Q 16.5 49.359375 19.40625 46.890625 
Q 22.3125 44.4375 30.421875 42.921875 
L 36.375 41.703125 
Q 47.40625 39.59375 52.65625 34.296875 
Q 57.90625 29 57.90625 20.125 
Q 57.90625 9.515625 50.796875 4.046875 
Q 43.703125 -1.421875 29.984375 -1.421875 
Q 24.8125 -1.421875 18.96875 -0.25 
Q 13.140625 0.921875 6.890625 3.21875 
L 6.890625 13.375 
Q 12.890625 10.015625 18.65625 8.296875 
Q 24.421875 6.59375 29.984375 6.59375 
Q 38.421875 6.59375 43.015625 9.90625 
Q 47.609375 13.234375 47.609375 19.390625 
Q 47.609375 24.75 44.3125 27.78125 
Q 41.015625 30.8125 33.5 32.328125 
L 27.484375 33.5 
Q 16.453125 35.6875 11.515625 40.375 
Q 6.59375 45.0625 6.59375 53.421875 
Q 6.59375 63.09375 13.40625 68.65625 
Q 20.21875 74.21875 32.171875 74.21875 
Q 37.3125 74.21875 42.625 73.28125 
Q 47.953125 72.359375 53.515625 70.515625 
z
" id="DejaVuSans-83"/>
      <path d="M 41.109375 46.296875 
Q 39.59375 47.171875 37.8125 47.578125 
Q 36.03125 48 33.890625 48 
Q 26.265625 48 22.1875 43.046875 
Q 18.109375 38.09375 18.109375 28.8125 
L 18.109375 0 
L 9.078125 0 
L 9.078125 54.6875 
L 18.109375 54.6875 
L 18.109375 46.1875 
Q 20.953125 51.171875 25.484375 53.578125 
Q 30.03125 56 36.53125 56 
Q 37.453125 56 38.578125 55.875 
Q 39.703125 55.765625 41.0625 55.515625 
z
" id="DejaVuSans-114"/>
     </defs>
     <use xlink:href="#DejaVuSans-68"/>
     <use x="77.001953" xlink:href="#DejaVuSans-101"/>
     <use x="138.525391" xlink:href="#DejaVuSans-99"/>
     <use x="193.505859" xlink:href="#DejaVuSans-111"/>
     <use x="254.6875" xlink:href="#DejaVuSans-109"/>
     <use x="352.099609" xlink:href="#DejaVuSans-112"/>
     <use x="415.576172" xlink:href="#DejaVuSans-111"/>
     <use x="476.757812" xlink:href="#DejaVuSans-115"/>
     <use x="528.857422" xlink:href="#DejaVuSans-105"/>
     <use x="556.640625" xlink:href="#DejaVuSans-116"/>
     <use x="595.849609" xlink:href="#DejaVuSans-105"/>
     <use x="623.632812" xlink:href="#DejaVuSans-111"/>
     <use x="684.814453" xlink:href="#DejaVuSans-110"/>
     <use x="748.193359" xlink:href="#DejaVuSans-32"/>
     <use x="779.980469" xlink:href="#DejaVuSans-111"/>
     <use x="841.162109" xlink:href="#DejaVuSans-102"/>
     <use x="876.367188" xlink:href="#DejaVuSans-32"/>
     <use x="908.154297" xlink:href="#DejaVuSans-116"/>
     <use x="947.363281" xlink:href="#DejaVuSans-104"/>
     <use x="1010.742188" xlink:href="#DejaVuSans-101"/>
     <use x="1072.265625" xlink:href="#DejaVuSans-32"/>
     <use x="1104.052734" xlink:href="#DejaVuSans-84"/>
     <use x="1162.011719" xlink:href="#DejaVuSans-105"/>
     <use x="1189.794922" xlink:href="#DejaVuSans-109"/>
     <use x="1287.207031" xlink:href="#DejaVuSans-101"/>
     <use x="1348.730469" xlink:href="#DejaVuSans-32"/>
     <use x="1380.517578" xlink:href="#DejaVuSans-83"/>
     <use x="1443.994141" xlink:href="#DejaVuSans-101"/>
     <use x="1505.517578" xlink:href="#DejaVuSans-114"/>
     <use x="1546.630859" xlink:href="#DejaVuSans-105"/>
     <use x="1574.414062" xlink:href="#DejaVuSans-101"/>
     <use x="1635.9375" xlink:href="#DejaVuSans-115"/>
    </g>
   </g>
   <g id="legend_1">
    <g id="line2d_18">
     <path d="M 63 47.658438 
L 83 47.658438 
" style="fill:none;stroke:#1f77b4;stroke-linecap:square;stroke-width:1.5;"/>
    </g>
    <g id="line2d_19"/>
    <g id="text_16">
     <!-- Data Time Series -->
     <g transform="translate(91 51.158438)scale(0.1 -0.1)">
      <defs>
       <path d="M 34.28125 27.484375 
Q 23.390625 27.484375 19.1875 25 
Q 14.984375 22.515625 14.984375 16.5 
Q 14.984375 11.71875 18.140625 8.90625 
Q 21.296875 6.109375 26.703125 6.109375 
Q 34.1875 6.109375 38.703125 11.40625 
Q 43.21875 16.703125 43.21875 25.484375 
L 43.21875 27.484375 
z
M 52.203125 31.203125 
L 52.203125 0 
L 43.21875 0 
L 43.21875 8.296875 
Q 40.140625 3.328125 35.546875 0.953125 
Q 30.953125 -1.421875 24.3125 -1.421875 
Q 15.921875 -1.421875 10.953125 3.296875 
Q 6 8.015625 6 15.921875 
Q 6 25.140625 12.171875 29.828125 
Q 18.359375 34.515625 30.609375 34.515625 
L 43.21875 34.515625 
L 43.21875 35.40625 
Q 43.21875 41.609375 39.140625 45 
Q 35.0625 48.390625 27.6875 48.390625 
Q 23 48.390625 18.546875 47.265625 
Q 14.109375 46.140625 10.015625 43.890625 
L 10.015625 52.203125 
Q 14.9375 54.109375 19.578125 55.046875 
Q 24.21875 56 28.609375 56 
Q 40.484375 56 46.34375 49.84375 
Q 52.203125 43.703125 52.203125 31.203125 
z
" id="DejaVuSans-97"/>
      </defs>
      <use xlink:href="#DejaVuSans-68"/>
      <use x="77.001953" xlink:href="#DejaVuSans-97"/>
      <use x="138.28125" xlink:href="#DejaVuSans-116"/>
      <use x="177.490234" xlink:href="#DejaVuSans-97"/>
      <use x="238.769531" xlink:href="#DejaVuSans-32"/>
      <use x="270.556641" xlink:href="#DejaVuSans-84"/>
      <use x="328.515625" xlink:href="#DejaVuSans-105"/>
      <use x="356.298828" xlink:href="#DejaVuSans-109"/>
      <use x="453.710938" xlink:href="#DejaVuSans-101"/>
      <use x="515.234375" xlink:href="#DejaVuSans-32"/>
      <use x="547.021484" xlink:href="#DejaVuSans-83"/>
      <use x="610.498047" xlink:href="#DejaVuSans-101"/>
      <use x="672.021484" xlink:href="#DejaVuSans-114"/>
      <use x="713.134766" xlink:href="#DejaVuSans-105"/>
      <use x="740.917969" xlink:href="#DejaVuSans-101"/>
      <use x="802.441406" xlink:href="#DejaVuSans-115"/>
     </g>
    </g>
    <g id="line2d_20">
     <path d="M 63 62.336563 
L 83 62.336563 
" style="fill:none;stroke:#ff7f0e;stroke-linecap:square;stroke-width:1.5;"/>
    </g>
    <g id="line2d_21"/>
    <g id="text_17">
     <!-- Trend -->
     <g transform="translate(91 65.836563)scale(0.1 -0.1)">
      <defs>
       <path d="M 45.40625 46.390625 
L 45.40625 75.984375 
L 54.390625 75.984375 
L 54.390625 0 
L 45.40625 0 
L 45.40625 8.203125 
Q 42.578125 3.328125 38.25 0.953125 
Q 33.9375 -1.421875 27.875 -1.421875 
Q 17.96875 -1.421875 11.734375 6.484375 
Q 5.515625 14.40625 5.515625 27.296875 
Q 5.515625 40.1875 11.734375 48.09375 
Q 17.96875 56 27.875 56 
Q 33.9375 56 38.25 53.625 
Q 42.578125 51.265625 45.40625 46.390625 
z
M 14.796875 27.296875 
Q 14.796875 17.390625 18.875 11.75 
Q 22.953125 6.109375 30.078125 6.109375 
Q 37.203125 6.109375 41.296875 11.75 
Q 45.40625 17.390625 45.40625 27.296875 
Q 45.40625 37.203125 41.296875 42.84375 
Q 37.203125 48.484375 30.078125 48.484375 
Q 22.953125 48.484375 18.875 42.84375 
Q 14.796875 37.203125 14.796875 27.296875 
z
" id="DejaVuSans-100"/>
      </defs>
      <use xlink:href="#DejaVuSans-84"/>
      <use x="46.333984" xlink:href="#DejaVuSans-114"/>
      <use x="85.197266" xlink:href="#DejaVuSans-101"/>
      <use x="146.720703" xlink:href="#DejaVuSans-110"/>
      <use x="210.099609" xlink:href="#DejaVuSans-100"/>
     </g>
    </g>
    <g id="line2d_22">
     <path d="M 63 77.014688 
L 83 77.014688 
" style="fill:none;stroke:#2ca02c;stroke-linecap:square;stroke-width:1.5;"/>
    </g>
    <g id="line2d_23"/>
    <g id="text_18">
     <!-- Seasonal Component -->
     <g transform="translate(91 80.514688)scale(0.1 -0.1)">
      <defs>
       <path d="M 9.421875 75.984375 
L 18.40625 75.984375 
L 18.40625 0 
L 9.421875 0 
z
" id="DejaVuSans-108"/>
       <path d="M 64.40625 67.28125 
L 64.40625 56.890625 
Q 59.421875 61.53125 53.78125 63.8125 
Q 48.140625 66.109375 41.796875 66.109375 
Q 29.296875 66.109375 22.65625 58.46875 
Q 16.015625 50.828125 16.015625 36.375 
Q 16.015625 21.96875 22.65625 14.328125 
Q 29.296875 6.6875 41.796875 6.6875 
Q 48.140625 6.6875 53.78125 8.984375 
Q 59.421875 11.28125 64.40625 15.921875 
L 64.40625 5.609375 
Q 59.234375 2.09375 53.4375 0.328125 
Q 47.65625 -1.421875 41.21875 -1.421875 
Q 24.65625 -1.421875 15.125 8.703125 
Q 5.609375 18.84375 5.609375 36.375 
Q 5.609375 53.953125 15.125 64.078125 
Q 24.65625 74.21875 41.21875 74.21875 
Q 47.75 74.21875 53.53125 72.484375 
Q 59.328125 70.75 64.40625 67.28125 
z
" id="DejaVuSans-67"/>
      </defs>
      <use xlink:href="#DejaVuSans-83"/>
      <use x="63.476562" xlink:href="#DejaVuSans-101"/>
      <use x="125" xlink:href="#DejaVuSans-97"/>
      <use x="186.279297" xlink:href="#DejaVuSans-115"/>
      <use x="238.378906" xlink:href="#DejaVuSans-111"/>
      <use x="299.560547" xlink:href="#DejaVuSans-110"/>
      <use x="362.939453" xlink:href="#DejaVuSans-97"/>
      <use x="424.21875" xlink:href="#DejaVuSans-108"/>
      <use x="452.001953" xlink:href="#DejaVuSans-32"/>
      <use x="483.789062" xlink:href="#DejaVuSans-67"/>
      <use x="553.613281" xlink:href="#DejaVuSans-111"/>
      <use x="614.794922" xlink:href="#DejaVuSans-109"/>
      <use x="712.207031" xlink:href="#DejaVuSans-112"/>
      <use x="775.683594" xlink:href="#DejaVuSans-111"/>
      <use x="836.865234" xlink:href="#DejaVuSans-110"/>
      <use x="900.244141" xlink:href="#DejaVuSans-101"/>
      <use x="961.767578" xlink:href="#DejaVuSans-110"/>
      <use x="1025.146484" xlink:href="#DejaVuSans-116"/>
     </g>
    </g>
   </g>
  </g>
 </g>
 <defs>
  <clipPath id="p9e9faa486e">
   <rect height="217.44" width="334.8" x="54" y="34.56"/>
  </clipPath>
 </defs>
</svg>
