<?xml version="1.0" encoding="utf-8" standalone="no"?>
<!DOCTYPE svg PUBLIC "-//W3C//DTD SVG 1.1//EN"
  "http://www.w3.org/Graphics/SVG/1.1/DTD/svg11.dtd">
<!-- Created with matplotlib (https://matplotlib.org/) -->
<svg height="288pt" version="1.1" viewBox="0 0 432 288" width="432pt" xmlns="http://www.w3.org/2000/svg" xmlns:xlink="http://www.w3.org/1999/xlink">
 <metadata>
  <rdf:RDF xmlns:cc="http://creativecommons.org/ns#" xmlns:dc="http://purl.org/dc/elements/1.1/" xmlns:rdf="http://www.w3.org/1999/02/22-rdf-syntax-ns#">
   <cc:Work>
    <dc:type rdf:resource="http://purl.org/dc/dcmitype/StillImage"/>
    <dc:date>2020-10-29T16:02:54.316860</dc:date>
    <dc:format>image/svg+xml</dc:format>
    <dc:creator>
     <cc:Agent>
      <dc:title>Matplotlib v3.3.2, https://matplotlib.org/</dc:title>
     </cc:Agent>
    </dc:creator>
   </cc:Work>
  </rdf:RDF>
 </metadata>
 <defs>
  <style type="text/css">*{stroke-linecap:butt;stroke-linejoin:round;}</style>
 </defs>
 <g id="figure_1">
  <g id="patch_1">
   <path d="M 0 288 
L 432 288 
L 432 0 
L 0 0 
z
" style="fill:none;"/>
  </g>
  <g id="axes_1">
   <g id="patch_2">
    <path d="M 54 133.396364 
L 206.181818 133.396364 
L 206.181818 34.56 
L 54 34.56 
z
" style="fill:#ffffff;"/>
   </g>
   <g id="matplotlib.axis_1">
    <g id="xtick_1">
     <g id="line2d_1">
      <defs>
       <path d="M 0 0 
L 0 3.5 
" id="mb0fdb0ed05" style="stroke:#000000;stroke-width:0.8;"/>
      </defs>
      <g>
       <use style="stroke:#000000;stroke-width:0.8;" x="60.917355" xlink:href="#mb0fdb0ed05" y="133.396364"/>
      </g>
     </g>
     <g id="text_1">
      <!-- 0 -->
      <g transform="translate(57.736105 147.994801)scale(0.1 -0.1)">
       <defs>
        <path d="M 31.78125 66.40625 
Q 24.171875 66.40625 20.328125 58.90625 
Q 16.5 51.421875 16.5 36.375 
Q 16.5 21.390625 20.328125 13.890625 
Q 24.171875 6.390625 31.78125 6.390625 
Q 39.453125 6.390625 43.28125 13.890625 
Q 47.125 21.390625 47.125 36.375 
Q 47.125 51.421875 43.28125 58.90625 
Q 39.453125 66.40625 31.78125 66.40625 
z
M 31.78125 74.21875 
Q 44.046875 74.21875 50.515625 64.515625 
Q 56.984375 54.828125 56.984375 36.375 
Q 56.984375 17.96875 50.515625 8.265625 
Q 44.046875 -1.421875 31.78125 -1.421875 
Q 19.53125 -1.421875 13.0625 8.265625 
Q 6.59375 17.96875 6.59375 36.375 
Q 6.59375 54.828125 13.0625 64.515625 
Q 19.53125 74.21875 31.78125 74.21875 
z
" id="DejaVuSans-48"/>
       </defs>
       <use xlink:href="#DejaVuSans-48"/>
      </g>
     </g>
    </g>
    <g id="xtick_2">
     <g id="line2d_2">
      <g>
       <use style="stroke:#000000;stroke-width:0.8;" x="93.54639" xlink:href="#mb0fdb0ed05" y="133.396364"/>
      </g>
     </g>
     <g id="text_2">
      <!-- 50 -->
      <g transform="translate(87.18389 147.994801)scale(0.1 -0.1)">
       <defs>
        <path d="M 10.796875 72.90625 
L 49.515625 72.90625 
L 49.515625 64.59375 
L 19.828125 64.59375 
L 19.828125 46.734375 
Q 21.96875 47.46875 24.109375 47.828125 
Q 26.265625 48.1875 28.421875 48.1875 
Q 40.625 48.1875 47.75 41.5 
Q 54.890625 34.8125 54.890625 23.390625 
Q 54.890625 11.625 47.5625 5.09375 
Q 40.234375 -1.421875 26.90625 -1.421875 
Q 22.3125 -1.421875 17.546875 -0.640625 
Q 12.796875 0.140625 7.71875 1.703125 
L 7.71875 11.625 
Q 12.109375 9.234375 16.796875 8.0625 
Q 21.484375 6.890625 26.703125 6.890625 
Q 35.15625 6.890625 40.078125 11.328125 
Q 45.015625 15.765625 45.015625 23.390625 
Q 45.015625 31 40.078125 35.4375 
Q 35.15625 39.890625 26.703125 39.890625 
Q 22.75 39.890625 18.8125 39.015625 
Q 14.890625 38.140625 10.796875 36.28125 
z
" id="DejaVuSans-53"/>
       </defs>
       <use xlink:href="#DejaVuSans-53"/>
       <use x="63.623047" xlink:href="#DejaVuSans-48"/>
      </g>
     </g>
    </g>
    <g id="xtick_3">
     <g id="line2d_3">
      <g>
       <use style="stroke:#000000;stroke-width:0.8;" x="126.175425" xlink:href="#mb0fdb0ed05" y="133.396364"/>
      </g>
     </g>
     <g id="text_3">
      <!-- 100 -->
      <g transform="translate(116.631675 147.994801)scale(0.1 -0.1)">
       <defs>
        <path d="M 12.40625 8.296875 
L 28.515625 8.296875 
L 28.515625 63.921875 
L 10.984375 60.40625 
L 10.984375 69.390625 
L 28.421875 72.90625 
L 38.28125 72.90625 
L 38.28125 8.296875 
L 54.390625 8.296875 
L 54.390625 0 
L 12.40625 0 
z
" id="DejaVuSans-49"/>
       </defs>
       <use xlink:href="#DejaVuSans-49"/>
       <use x="63.623047" xlink:href="#DejaVuSans-48"/>
       <use x="127.246094" xlink:href="#DejaVuSans-48"/>
      </g>
     </g>
    </g>
    <g id="xtick_4">
     <g id="line2d_4">
      <g>
       <use style="stroke:#000000;stroke-width:0.8;" x="158.80446" xlink:href="#mb0fdb0ed05" y="133.396364"/>
      </g>
     </g>
     <g id="text_4">
      <!-- 150 -->
      <g transform="translate(149.26071 147.994801)scale(0.1 -0.1)">
       <use xlink:href="#DejaVuSans-49"/>
       <use x="63.623047" xlink:href="#DejaVuSans-53"/>
       <use x="127.246094" xlink:href="#DejaVuSans-48"/>
      </g>
     </g>
    </g>
    <g id="xtick_5">
     <g id="line2d_5">
      <g>
       <use style="stroke:#000000;stroke-width:0.8;" x="191.433494" xlink:href="#mb0fdb0ed05" y="133.396364"/>
      </g>
     </g>
     <g id="text_5">
      <!-- 200 -->
      <g transform="translate(181.889744 147.994801)scale(0.1 -0.1)">
       <defs>
        <path d="M 19.1875 8.296875 
L 53.609375 8.296875 
L 53.609375 0 
L 7.328125 0 
L 7.328125 8.296875 
Q 12.9375 14.109375 22.625 23.890625 
Q 32.328125 33.6875 34.8125 36.53125 
Q 39.546875 41.84375 41.421875 45.53125 
Q 43.3125 49.21875 43.3125 52.78125 
Q 43.3125 58.59375 39.234375 62.25 
Q 35.15625 65.921875 28.609375 65.921875 
Q 23.96875 65.921875 18.8125 64.3125 
Q 13.671875 62.703125 7.8125 59.421875 
L 7.8125 69.390625 
Q 13.765625 71.78125 18.9375 73 
Q 24.125 74.21875 28.421875 74.21875 
Q 39.75 74.21875 46.484375 68.546875 
Q 53.21875 62.890625 53.21875 53.421875 
Q 53.21875 48.921875 51.53125 44.890625 
Q 49.859375 40.875 45.40625 35.40625 
Q 44.1875 33.984375 37.640625 27.21875 
Q 31.109375 20.453125 19.1875 8.296875 
z
" id="DejaVuSans-50"/>
       </defs>
       <use xlink:href="#DejaVuSans-50"/>
       <use x="63.623047" xlink:href="#DejaVuSans-48"/>
       <use x="127.246094" xlink:href="#DejaVuSans-48"/>
      </g>
     </g>
    </g>
   </g>
   <g id="matplotlib.axis_2">
    <g id="ytick_1">
     <g id="line2d_6">
      <defs>
       <path d="M 0 0 
L -3.5 0 
" id="m19ecfb445e" style="stroke:#000000;stroke-width:0.8;"/>
      </defs>
      <g>
       <use style="stroke:#000000;stroke-width:0.8;" x="54" xlink:href="#m19ecfb445e" y="129.295715"/>
      </g>
     </g>
     <g id="text_6">
      <!-- 0 -->
      <g transform="translate(40.6375 133.094934)scale(0.1 -0.1)">
       <use xlink:href="#DejaVuSans-48"/>
      </g>
     </g>
    </g>
    <g id="ytick_2">
     <g id="line2d_7">
      <g>
       <use style="stroke:#000000;stroke-width:0.8;" x="54" xlink:href="#m19ecfb445e" y="94.917371"/>
      </g>
     </g>
     <g id="text_7">
      <!-- 5000 -->
      <g transform="translate(21.55 98.71659)scale(0.1 -0.1)">
       <use xlink:href="#DejaVuSans-53"/>
       <use x="63.623047" xlink:href="#DejaVuSans-48"/>
       <use x="127.246094" xlink:href="#DejaVuSans-48"/>
       <use x="190.869141" xlink:href="#DejaVuSans-48"/>
      </g>
     </g>
    </g>
    <g id="ytick_3">
     <g id="line2d_8">
      <g>
       <use style="stroke:#000000;stroke-width:0.8;" x="54" xlink:href="#m19ecfb445e" y="60.539027"/>
      </g>
     </g>
     <g id="text_8">
      <!-- 10000 -->
      <g transform="translate(15.1875 64.338246)scale(0.1 -0.1)">
       <use xlink:href="#DejaVuSans-49"/>
       <use x="63.623047" xlink:href="#DejaVuSans-48"/>
       <use x="127.246094" xlink:href="#DejaVuSans-48"/>
       <use x="190.869141" xlink:href="#DejaVuSans-48"/>
       <use x="254.492188" xlink:href="#DejaVuSans-48"/>
      </g>
     </g>
    </g>
   </g>
   <g id="line2d_9">
    <path clip-path="url(#pfd62126e3e)" d="M 60.917355 128.738786 
L 62.222517 128.903802 
L 62.875097 128.291867 
L 63.527678 127.501165 
L 64.180259 126.511069 
L 64.83284 125.981642 
L 65.48542 126.002269 
L 66.138001 126.806723 
L 66.790582 126.242918 
L 68.095743 124.015201 
L 68.748324 122.426922 
L 69.400904 122.055636 
L 70.053485 120.659875 
L 70.706066 121.072415 
L 71.358646 119.814168 
L 72.011227 113.289158 
L 72.663808 112.979753 
L 73.316389 110.738285 
L 73.968969 108.022396 
L 74.62155 107.369207 
L 75.274131 109.892577 
L 75.926711 109.624426 
L 76.579292 99.943485 
L 77.231873 98.265822 
L 77.884453 95.515554 
L 78.537034 95.831835 
L 79.189615 95.501803 
L 79.842196 101.703656 
L 80.494776 104.591437 
L 81.147357 92.971557 
L 81.799938 91.892077 
L 83.105099 95.88684 
L 83.75768 99.654707 
L 84.41026 104.701448 
L 85.062841 105.313382 
L 85.715422 100.527917 
L 86.368002 99.58595 
L 87.020583 94.518582 
L 87.673164 92.930303 
L 88.325745 95.233652 
L 88.978325 96.815055 
L 89.630906 102.796887 
L 90.283487 95.88684 
L 90.936067 96.560656 
L 91.588648 91.575796 
L 92.241229 93.906648 
L 92.893809 95.178646 
L 93.54639 103.525708 
L 94.198971 105.423393 
L 94.851552 96.925066 
L 95.504132 96.766926 
L 96.156713 91.905828 
L 96.809294 95.158019 
L 97.461874 96.725672 
L 98.114455 107.059802 
L 98.767036 108.826849 
L 99.419616 106.0147 
L 100.072197 103.979502 
L 100.724778 102.989406 
L 101.377358 103.415697 
L 102.029939 108.242417 
L 102.68252 114.437395 
L 103.335101 113.316661 
L 103.987681 104.653318 
L 104.640262 105.932192 
L 105.292843 106.551002 
L 105.945423 111.260836 
L 106.598004 111.914024 
L 107.250585 115.014951 
L 107.903165 116.665111 
L 108.555746 111.522111 
L 109.208327 108.304298 
L 109.860908 110.63515 
L 110.513488 111.590868 
L 111.81865 118.81032 
L 112.47123 119.910427 
L 113.123811 118.129629 
L 113.776392 117.827099 
L 114.428972 116.713241 
L 115.081553 117.235792 
L 115.734134 118.803444 
L 116.386714 121.594966 
L 117.039295 121.869992 
L 117.691876 119.436006 
L 118.344457 119.01659 
L 120.302199 121.574339 
L 120.954779 123.767677 
L 121.60736 124.338358 
L 122.259941 121.780609 
L 122.912521 121.347442 
L 123.565102 121.072415 
L 124.217683 122.337538 
L 124.870264 122.076263 
L 125.522844 123.17637 
L 126.175425 123.650791 
L 126.828006 122.138144 
L 127.480586 121.704976 
L 128.133167 122.323787 
L 128.785748 122.248154 
L 129.438328 122.481927 
L 130.090909 124.579006 
L 130.74349 124.909038 
L 131.39607 123.135116 
L 132.048651 123.203872 
L 132.701232 123.960196 
L 134.006393 124.675265 
L 134.658974 124.812779 
L 135.311555 126.222291 
L 135.964135 124.283352 
L 136.616716 125.053427 
L 137.269297 124.833406 
L 138.574458 125.349081 
L 139.227039 126.52482 
L 140.5322 124.420866 
L 141.184781 125.149686 
L 141.837362 124.46212 
L 142.489942 124.372736 
L 143.142523 125.404086 
L 143.795104 126.215415 
L 144.447684 126.772344 
L 145.100265 124.248974 
L 145.752846 124.551503 
L 146.405426 123.994574 
L 147.058007 124.455244 
L 147.710588 125.307827 
L 148.363169 125.871632 
L 149.015749 126.249794 
L 149.66833 123.712672 
L 150.320911 123.912066 
L 151.626072 123.788304 
L 152.278653 124.015201 
L 152.931233 125.706616 
L 153.583814 125.459092 
L 154.236395 123.403267 
L 154.888976 123.49265 
L 155.541556 122.151895 
L 156.194137 122.935721 
L 156.846718 124.654638 
L 157.499298 125.562227 
L 158.151879 125.472843 
L 158.80446 122.124392 
L 159.45704 122.268781 
L 160.109621 121.993755 
L 160.762202 121.84249 
L 161.414782 122.811959 
L 162.067363 124.503374 
L 162.719944 125.060303 
L 163.372525 119.160979 
L 164.677686 121.003658 
L 165.330267 121.416198 
L 165.982847 121.264934 
L 166.635428 124.503374 
L 167.288009 125.177189 
L 167.940589 120.467356 
L 168.59317 121.84249 
L 169.245751 120.756134 
L 169.898332 119.215984 
L 170.550912 121.051788 
L 171.203493 123.609537 
L 171.856074 123.630164 
L 172.508654 120.893648 
L 173.161235 120.721756 
L 173.813816 119.986059 
L 174.466396 118.542169 
L 175.118977 118.074623 
L 175.771558 120.852394 
L 176.424138 121.306188 
L 177.076719 118.982212 
L 178.381881 108.675584 
L 179.034461 107.994893 
L 179.687042 108.407433 
L 180.339623 111.804013 
L 180.992203 112.470953 
L 181.644784 102.735006 
L 182.297365 106.619759 
L 182.949945 106.392862 
L 183.602526 104.557058 
L 184.255107 106.674764 
L 185.560268 114.547405 
L 186.212849 105.980322 
L 186.86543 104.859588 
L 187.51801 99.242167 
L 188.170591 97.413239 
L 188.823172 95.164895 
L 189.475752 95.804332 
L 190.128333 92.813416 
L 190.780914 90.867602 
L 191.433494 85.236429 
L 192.738656 77.006254 
L 193.391237 79.48837 
L 194.043817 82.939956 
L 194.696398 81.44106 
L 195.348979 61.315978 
L 196.001559 59.088261 
L 196.65414 43.851779 
L 197.306721 40.998376 
L 197.959301 39.052562 
L 198.611882 60.525276 
L 199.264463 59.569558 
L 199.264463 59.569558 
" style="fill:none;stroke:#1f77b4;stroke-linecap:square;stroke-width:1.5;"/>
   </g>
   <g id="patch_3">
    <path d="M 54 133.396364 
L 54 34.56 
" style="fill:none;stroke:#000000;stroke-linecap:square;stroke-linejoin:miter;stroke-width:0.8;"/>
   </g>
   <g id="patch_4">
    <path d="M 206.181818 133.396364 
L 206.181818 34.56 
" style="fill:none;stroke:#000000;stroke-linecap:square;stroke-linejoin:miter;stroke-width:0.8;"/>
   </g>
   <g id="patch_5">
    <path d="M 54 133.396364 
L 206.181818 133.396364 
" style="fill:none;stroke:#000000;stroke-linecap:square;stroke-linejoin:miter;stroke-width:0.8;"/>
   </g>
   <g id="patch_6">
    <path d="M 54 34.56 
L 206.181818 34.56 
" style="fill:none;stroke:#000000;stroke-linecap:square;stroke-linejoin:miter;stroke-width:0.8;"/>
   </g>
   <g id="legend_1">
    <g id="line2d_10">
     <path d="M 63 47.658437 
L 83 47.658437 
" style="fill:none;stroke:#1f77b4;stroke-linecap:square;stroke-width:1.5;"/>
    </g>
    <g id="line2d_11"/>
    <g id="text_9">
     <!-- Data Time Series -->
     <g transform="translate(91 51.158437)scale(0.1 -0.1)">
      <defs>
       <path d="M 19.671875 64.796875 
L 19.671875 8.109375 
L 31.59375 8.109375 
Q 46.6875 8.109375 53.6875 14.9375 
Q 60.6875 21.78125 60.6875 36.53125 
Q 60.6875 51.171875 53.6875 57.984375 
Q 46.6875 64.796875 31.59375 64.796875 
z
M 9.8125 72.90625 
L 30.078125 72.90625 
Q 51.265625 72.90625 61.171875 64.09375 
Q 71.09375 55.28125 71.09375 36.53125 
Q 71.09375 17.671875 61.125 8.828125 
Q 51.171875 0 30.078125 0 
L 9.8125 0 
z
" id="DejaVuSans-68"/>
       <path d="M 34.28125 27.484375 
Q 23.390625 27.484375 19.1875 25 
Q 14.984375 22.515625 14.984375 16.5 
Q 14.984375 11.71875 18.140625 8.90625 
Q 21.296875 6.109375 26.703125 6.109375 
Q 34.1875 6.109375 38.703125 11.40625 
Q 43.21875 16.703125 43.21875 25.484375 
L 43.21875 27.484375 
z
M 52.203125 31.203125 
L 52.203125 0 
L 43.21875 0 
L 43.21875 8.296875 
Q 40.140625 3.328125 35.546875 0.953125 
Q 30.953125 -1.421875 24.3125 -1.421875 
Q 15.921875 -1.421875 10.953125 3.296875 
Q 6 8.015625 6 15.921875 
Q 6 25.140625 12.171875 29.828125 
Q 18.359375 34.515625 30.609375 34.515625 
L 43.21875 34.515625 
L 43.21875 35.40625 
Q 43.21875 41.609375 39.140625 45 
Q 35.0625 48.390625 27.6875 48.390625 
Q 23 48.390625 18.546875 47.265625 
Q 14.109375 46.140625 10.015625 43.890625 
L 10.015625 52.203125 
Q 14.9375 54.109375 19.578125 55.046875 
Q 24.21875 56 28.609375 56 
Q 40.484375 56 46.34375 49.84375 
Q 52.203125 43.703125 52.203125 31.203125 
z
" id="DejaVuSans-97"/>
       <path d="M 18.3125 70.21875 
L 18.3125 54.6875 
L 36.8125 54.6875 
L 36.8125 47.703125 
L 18.3125 47.703125 
L 18.3125 18.015625 
Q 18.3125 11.328125 20.140625 9.421875 
Q 21.96875 7.515625 27.59375 7.515625 
L 36.8125 7.515625 
L 36.8125 0 
L 27.59375 0 
Q 17.1875 0 13.234375 3.875 
Q 9.28125 7.765625 9.28125 18.015625 
L 9.28125 47.703125 
L 2.6875 47.703125 
L 2.6875 54.6875 
L 9.28125 54.6875 
L 9.28125 70.21875 
z
" id="DejaVuSans-116"/>
       <path id="DejaVuSans-32"/>
       <path d="M -0.296875 72.90625 
L 61.375 72.90625 
L 61.375 64.59375 
L 35.5 64.59375 
L 35.5 0 
L 25.59375 0 
L 25.59375 64.59375 
L -0.296875 64.59375 
z
" id="DejaVuSans-84"/>
       <path d="M 9.421875 54.6875 
L 18.40625 54.6875 
L 18.40625 0 
L 9.421875 0 
z
M 9.421875 75.984375 
L 18.40625 75.984375 
L 18.40625 64.59375 
L 9.421875 64.59375 
z
" id="DejaVuSans-105"/>
       <path d="M 52 44.1875 
Q 55.375 50.25 60.0625 53.125 
Q 64.75 56 71.09375 56 
Q 79.640625 56 84.28125 50.015625 
Q 88.921875 44.046875 88.921875 33.015625 
L 88.921875 0 
L 79.890625 0 
L 79.890625 32.71875 
Q 79.890625 40.578125 77.09375 44.375 
Q 74.3125 48.1875 68.609375 48.1875 
Q 61.625 48.1875 57.5625 43.546875 
Q 53.515625 38.921875 53.515625 30.90625 
L 53.515625 0 
L 44.484375 0 
L 44.484375 32.71875 
Q 44.484375 40.625 41.703125 44.40625 
Q 38.921875 48.1875 33.109375 48.1875 
Q 26.21875 48.1875 22.15625 43.53125 
Q 18.109375 38.875 18.109375 30.90625 
L 18.109375 0 
L 9.078125 0 
L 9.078125 54.6875 
L 18.109375 54.6875 
L 18.109375 46.1875 
Q 21.1875 51.21875 25.484375 53.609375 
Q 29.78125 56 35.6875 56 
Q 41.65625 56 45.828125 52.96875 
Q 50 49.953125 52 44.1875 
z
" id="DejaVuSans-109"/>
       <path d="M 56.203125 29.59375 
L 56.203125 25.203125 
L 14.890625 25.203125 
Q 15.484375 15.921875 20.484375 11.0625 
Q 25.484375 6.203125 34.421875 6.203125 
Q 39.59375 6.203125 44.453125 7.46875 
Q 49.3125 8.734375 54.109375 11.28125 
L 54.109375 2.78125 
Q 49.265625 0.734375 44.1875 -0.34375 
Q 39.109375 -1.421875 33.890625 -1.421875 
Q 20.796875 -1.421875 13.15625 6.1875 
Q 5.515625 13.8125 5.515625 26.8125 
Q 5.515625 40.234375 12.765625 48.109375 
Q 20.015625 56 32.328125 56 
Q 43.359375 56 49.78125 48.890625 
Q 56.203125 41.796875 56.203125 29.59375 
z
M 47.21875 32.234375 
Q 47.125 39.59375 43.09375 43.984375 
Q 39.0625 48.390625 32.421875 48.390625 
Q 24.90625 48.390625 20.390625 44.140625 
Q 15.875 39.890625 15.1875 32.171875 
z
" id="DejaVuSans-101"/>
       <path d="M 53.515625 70.515625 
L 53.515625 60.890625 
Q 47.90625 63.578125 42.921875 64.890625 
Q 37.9375 66.21875 33.296875 66.21875 
Q 25.25 66.21875 20.875 63.09375 
Q 16.5 59.96875 16.5 54.203125 
Q 16.5 49.359375 19.40625 46.890625 
Q 22.3125 44.4375 30.421875 42.921875 
L 36.375 41.703125 
Q 47.40625 39.59375 52.65625 34.296875 
Q 57.90625 29 57.90625 20.125 
Q 57.90625 9.515625 50.796875 4.046875 
Q 43.703125 -1.421875 29.984375 -1.421875 
Q 24.8125 -1.421875 18.96875 -0.25 
Q 13.140625 0.921875 6.890625 3.21875 
L 6.890625 13.375 
Q 12.890625 10.015625 18.65625 8.296875 
Q 24.421875 6.59375 29.984375 6.59375 
Q 38.421875 6.59375 43.015625 9.90625 
Q 47.609375 13.234375 47.609375 19.390625 
Q 47.609375 24.75 44.3125 27.78125 
Q 41.015625 30.8125 33.5 32.328125 
L 27.484375 33.5 
Q 16.453125 35.6875 11.515625 40.375 
Q 6.59375 45.0625 6.59375 53.421875 
Q 6.59375 63.09375 13.40625 68.65625 
Q 20.21875 74.21875 32.171875 74.21875 
Q 37.3125 74.21875 42.625 73.28125 
Q 47.953125 72.359375 53.515625 70.515625 
z
" id="DejaVuSans-83"/>
       <path d="M 41.109375 46.296875 
Q 39.59375 47.171875 37.8125 47.578125 
Q 36.03125 48 33.890625 48 
Q 26.265625 48 22.1875 43.046875 
Q 18.109375 38.09375 18.109375 28.8125 
L 18.109375 0 
L 9.078125 0 
L 9.078125 54.6875 
L 18.109375 54.6875 
L 18.109375 46.1875 
Q 20.953125 51.171875 25.484375 53.578125 
Q 30.03125 56 36.53125 56 
Q 37.453125 56 38.578125 55.875 
Q 39.703125 55.765625 41.0625 55.515625 
z
" id="DejaVuSans-114"/>
       <path d="M 44.28125 53.078125 
L 44.28125 44.578125 
Q 40.484375 46.53125 36.375 47.5 
Q 32.28125 48.484375 27.875 48.484375 
Q 21.1875 48.484375 17.84375 46.4375 
Q 14.5 44.390625 14.5 40.28125 
Q 14.5 37.15625 16.890625 35.375 
Q 19.28125 33.59375 26.515625 31.984375 
L 29.59375 31.296875 
Q 39.15625 29.25 43.1875 25.515625 
Q 47.21875 21.78125 47.21875 15.09375 
Q 47.21875 7.46875 41.1875 3.015625 
Q 35.15625 -1.421875 24.609375 -1.421875 
Q 20.21875 -1.421875 15.453125 -0.5625 
Q 10.6875 0.296875 5.421875 2 
L 5.421875 11.28125 
Q 10.40625 8.6875 15.234375 7.390625 
Q 20.0625 6.109375 24.8125 6.109375 
Q 31.15625 6.109375 34.5625 8.28125 
Q 37.984375 10.453125 37.984375 14.40625 
Q 37.984375 18.0625 35.515625 20.015625 
Q 33.0625 21.96875 24.703125 23.78125 
L 21.578125 24.515625 
Q 13.234375 26.265625 9.515625 29.90625 
Q 5.8125 33.546875 5.8125 39.890625 
Q 5.8125 47.609375 11.28125 51.796875 
Q 16.75 56 26.8125 56 
Q 31.78125 56 36.171875 55.265625 
Q 40.578125 54.546875 44.28125 53.078125 
z
" id="DejaVuSans-115"/>
      </defs>
      <use xlink:href="#DejaVuSans-68"/>
      <use x="77.001953" xlink:href="#DejaVuSans-97"/>
      <use x="138.28125" xlink:href="#DejaVuSans-116"/>
      <use x="177.490234" xlink:href="#DejaVuSans-97"/>
      <use x="238.769531" xlink:href="#DejaVuSans-32"/>
      <use x="270.556641" xlink:href="#DejaVuSans-84"/>
      <use x="328.515625" xlink:href="#DejaVuSans-105"/>
      <use x="356.298828" xlink:href="#DejaVuSans-109"/>
      <use x="453.710938" xlink:href="#DejaVuSans-101"/>
      <use x="515.234375" xlink:href="#DejaVuSans-32"/>
      <use x="547.021484" xlink:href="#DejaVuSans-83"/>
      <use x="610.498047" xlink:href="#DejaVuSans-101"/>
      <use x="672.021484" xlink:href="#DejaVuSans-114"/>
      <use x="713.134766" xlink:href="#DejaVuSans-105"/>
      <use x="740.917969" xlink:href="#DejaVuSans-101"/>
      <use x="802.441406" xlink:href="#DejaVuSans-115"/>
     </g>
    </g>
   </g>
  </g>
  <g id="axes_2">
   <g id="patch_7">
    <path d="M 236.618182 133.396364 
L 388.8 133.396364 
L 388.8 34.56 
L 236.618182 34.56 
z
" style="fill:#ffffff;"/>
   </g>
   <g id="matplotlib.axis_3">
    <g id="xtick_6">
     <g id="line2d_12">
      <g>
       <use style="stroke:#000000;stroke-width:0.8;" x="243.535537" xlink:href="#mb0fdb0ed05" y="133.396364"/>
      </g>
     </g>
     <g id="text_10">
      <!-- 0 -->
      <g transform="translate(240.354287 147.994801)scale(0.1 -0.1)">
       <use xlink:href="#DejaVuSans-48"/>
      </g>
     </g>
    </g>
    <g id="xtick_7">
     <g id="line2d_13">
      <g>
       <use style="stroke:#000000;stroke-width:0.8;" x="276.164572" xlink:href="#mb0fdb0ed05" y="133.396364"/>
      </g>
     </g>
     <g id="text_11">
      <!-- 50 -->
      <g transform="translate(269.802072 147.994801)scale(0.1 -0.1)">
       <use xlink:href="#DejaVuSans-53"/>
       <use x="63.623047" xlink:href="#DejaVuSans-48"/>
      </g>
     </g>
    </g>
    <g id="xtick_8">
     <g id="line2d_14">
      <g>
       <use style="stroke:#000000;stroke-width:0.8;" x="308.793607" xlink:href="#mb0fdb0ed05" y="133.396364"/>
      </g>
     </g>
     <g id="text_12">
      <!-- 100 -->
      <g transform="translate(299.249857 147.994801)scale(0.1 -0.1)">
       <use xlink:href="#DejaVuSans-49"/>
       <use x="63.623047" xlink:href="#DejaVuSans-48"/>
       <use x="127.246094" xlink:href="#DejaVuSans-48"/>
      </g>
     </g>
    </g>
    <g id="xtick_9">
     <g id="line2d_15">
      <g>
       <use style="stroke:#000000;stroke-width:0.8;" x="341.422642" xlink:href="#mb0fdb0ed05" y="133.396364"/>
      </g>
     </g>
     <g id="text_13">
      <!-- 150 -->
      <g transform="translate(331.878892 147.994801)scale(0.1 -0.1)">
       <use xlink:href="#DejaVuSans-49"/>
       <use x="63.623047" xlink:href="#DejaVuSans-53"/>
       <use x="127.246094" xlink:href="#DejaVuSans-48"/>
      </g>
     </g>
    </g>
    <g id="xtick_10">
     <g id="line2d_16">
      <g>
       <use style="stroke:#000000;stroke-width:0.8;" x="374.051676" xlink:href="#mb0fdb0ed05" y="133.396364"/>
      </g>
     </g>
     <g id="text_14">
      <!-- 200 -->
      <g transform="translate(364.507926 147.994801)scale(0.1 -0.1)">
       <use xlink:href="#DejaVuSans-50"/>
       <use x="63.623047" xlink:href="#DejaVuSans-48"/>
       <use x="127.246094" xlink:href="#DejaVuSans-48"/>
      </g>
     </g>
    </g>
   </g>
   <g id="matplotlib.axis_4">
    <g id="ytick_4">
     <g id="line2d_17">
      <g>
       <use style="stroke:#000000;stroke-width:0.8;" x="236.618182" xlink:href="#m19ecfb445e" y="119.368825"/>
      </g>
     </g>
     <g id="text_15">
      <!-- 0 -->
      <g transform="translate(223.255682 123.168044)scale(0.1 -0.1)">
       <use xlink:href="#DejaVuSans-48"/>
      </g>
     </g>
    </g>
    <g id="ytick_5">
     <g id="line2d_18">
      <g>
       <use style="stroke:#000000;stroke-width:0.8;" x="236.618182" xlink:href="#m19ecfb445e" y="85.999893"/>
      </g>
     </g>
     <g id="text_16">
      <!-- 5000 -->
      <g transform="translate(204.168182 89.799112)scale(0.1 -0.1)">
       <use xlink:href="#DejaVuSans-53"/>
       <use x="63.623047" xlink:href="#DejaVuSans-48"/>
       <use x="127.246094" xlink:href="#DejaVuSans-48"/>
       <use x="190.869141" xlink:href="#DejaVuSans-48"/>
      </g>
     </g>
    </g>
    <g id="ytick_6">
     <g id="line2d_19">
      <g>
       <use style="stroke:#000000;stroke-width:0.8;" x="236.618182" xlink:href="#m19ecfb445e" y="52.630961"/>
      </g>
     </g>
     <g id="text_17">
      <!-- 10000 -->
      <g transform="translate(197.805682 56.43018)scale(0.1 -0.1)">
       <use xlink:href="#DejaVuSans-49"/>
       <use x="63.623047" xlink:href="#DejaVuSans-48"/>
       <use x="127.246094" xlink:href="#DejaVuSans-48"/>
       <use x="190.869141" xlink:href="#DejaVuSans-48"/>
       <use x="254.492188" xlink:href="#DejaVuSans-48"/>
      </g>
     </g>
    </g>
   </g>
   <g id="line2d_20">
    <path clip-path="url(#p822965cdd7)" d="M 243.535537 128.903802 
L 245.493279 122.547899 
L 247.451021 116.843765 
L 249.408763 111.764227 
L 251.366506 107.282111 
L 253.324248 103.370241 
L 255.28199 100.001445 
L 257.239732 97.148547 
L 259.197474 94.784374 
L 261.155216 92.881752 
L 263.112958 91.413507 
L 264.418119 90.662578 
L 265.723281 90.084576 
L 267.028442 89.67145 
L 268.986184 89.34329 
L 270.943926 89.34081 
L 272.901668 89.636836 
L 274.859411 90.204194 
L 276.817153 91.015709 
L 278.774895 92.044209 
L 281.385218 93.706104 
L 283.99554 95.641026 
L 287.258444 98.345493 
L 292.479089 103.036623 
L 298.352316 108.285002 
L 301.615219 110.924761 
L 304.225542 112.763606 
L 306.183284 113.926451 
L 308.141026 114.863138 
L 310.098768 115.536975 
L 312.05651 115.911271 
L 313.361672 115.977013 
L 315.319414 115.817242 
L 317.277156 115.420212 
L 320.540059 114.45778 
L 324.455543 113.282385 
L 326.413286 112.880918 
L 328.371028 112.697671 
L 330.32877 112.715144 
L 332.939092 112.976258 
L 336.854577 113.670202 
L 342.075222 114.623835 
L 344.685545 114.883155 
L 346.643287 114.898759 
L 348.601029 114.713188 
L 350.558771 114.28338 
L 352.516513 113.566276 
L 354.474255 112.518812 
L 356.431998 111.09793 
L 358.38974 109.260567 
L 360.347482 106.963663 
L 362.305224 104.164157 
L 364.262966 100.818987 
L 366.220708 96.885094 
L 368.17845 92.319415 
L 370.136192 87.078891 
L 372.093934 81.120459 
L 374.051676 74.40106 
L 376.009418 66.877631 
L 377.96716 58.507112 
L 379.924903 49.246443 
L 381.882645 39.052562 
L 381.882645 39.052562 
" style="fill:none;stroke:#1f77b4;stroke-linecap:square;stroke-width:1.5;"/>
   </g>
   <g id="patch_8">
    <path d="M 236.618182 133.396364 
L 236.618182 34.56 
" style="fill:none;stroke:#000000;stroke-linecap:square;stroke-linejoin:miter;stroke-width:0.8;"/>
   </g>
   <g id="patch_9">
    <path d="M 388.8 133.396364 
L 388.8 34.56 
" style="fill:none;stroke:#000000;stroke-linecap:square;stroke-linejoin:miter;stroke-width:0.8;"/>
   </g>
   <g id="patch_10">
    <path d="M 236.618182 133.396364 
L 388.8 133.396364 
" style="fill:none;stroke:#000000;stroke-linecap:square;stroke-linejoin:miter;stroke-width:0.8;"/>
   </g>
   <g id="patch_11">
    <path d="M 236.618182 34.56 
L 388.8 34.56 
" style="fill:none;stroke:#000000;stroke-linecap:square;stroke-linejoin:miter;stroke-width:0.8;"/>
   </g>
   <g id="legend_2">
    <g id="line2d_21">
     <path d="M 245.618182 47.658437 
L 265.618182 47.658437 
" style="fill:none;stroke:#1f77b4;stroke-linecap:square;stroke-width:1.5;"/>
    </g>
    <g id="line2d_22"/>
    <g id="text_18">
     <!-- Mean Trend -->
     <g transform="translate(273.618182 51.158437)scale(0.1 -0.1)">
      <defs>
       <path d="M 9.8125 72.90625 
L 24.515625 72.90625 
L 43.109375 23.296875 
L 61.8125 72.90625 
L 76.515625 72.90625 
L 76.515625 0 
L 66.890625 0 
L 66.890625 64.015625 
L 48.09375 14.015625 
L 38.1875 14.015625 
L 19.390625 64.015625 
L 19.390625 0 
L 9.8125 0 
z
" id="DejaVuSans-77"/>
       <path d="M 54.890625 33.015625 
L 54.890625 0 
L 45.90625 0 
L 45.90625 32.71875 
Q 45.90625 40.484375 42.875 44.328125 
Q 39.84375 48.1875 33.796875 48.1875 
Q 26.515625 48.1875 22.3125 43.546875 
Q 18.109375 38.921875 18.109375 30.90625 
L 18.109375 0 
L 9.078125 0 
L 9.078125 54.6875 
L 18.109375 54.6875 
L 18.109375 46.1875 
Q 21.34375 51.125 25.703125 53.5625 
Q 30.078125 56 35.796875 56 
Q 45.21875 56 50.046875 50.171875 
Q 54.890625 44.34375 54.890625 33.015625 
z
" id="DejaVuSans-110"/>
       <path d="M 45.40625 46.390625 
L 45.40625 75.984375 
L 54.390625 75.984375 
L 54.390625 0 
L 45.40625 0 
L 45.40625 8.203125 
Q 42.578125 3.328125 38.25 0.953125 
Q 33.9375 -1.421875 27.875 -1.421875 
Q 17.96875 -1.421875 11.734375 6.484375 
Q 5.515625 14.40625 5.515625 27.296875 
Q 5.515625 40.1875 11.734375 48.09375 
Q 17.96875 56 27.875 56 
Q 33.9375 56 38.25 53.625 
Q 42.578125 51.265625 45.40625 46.390625 
z
M 14.796875 27.296875 
Q 14.796875 17.390625 18.875 11.75 
Q 22.953125 6.109375 30.078125 6.109375 
Q 37.203125 6.109375 41.296875 11.75 
Q 45.40625 17.390625 45.40625 27.296875 
Q 45.40625 37.203125 41.296875 42.84375 
Q 37.203125 48.484375 30.078125 48.484375 
Q 22.953125 48.484375 18.875 42.84375 
Q 14.796875 37.203125 14.796875 27.296875 
z
" id="DejaVuSans-100"/>
      </defs>
      <use xlink:href="#DejaVuSans-77"/>
      <use x="86.279297" xlink:href="#DejaVuSans-101"/>
      <use x="147.802734" xlink:href="#DejaVuSans-97"/>
      <use x="209.082031" xlink:href="#DejaVuSans-110"/>
      <use x="272.460938" xlink:href="#DejaVuSans-32"/>
      <use x="304.248047" xlink:href="#DejaVuSans-84"/>
      <use x="350.582031" xlink:href="#DejaVuSans-114"/>
      <use x="389.445312" xlink:href="#DejaVuSans-101"/>
      <use x="450.96875" xlink:href="#DejaVuSans-110"/>
      <use x="514.347656" xlink:href="#DejaVuSans-100"/>
     </g>
    </g>
   </g>
  </g>
  <g id="axes_3">
   <g id="patch_12">
    <path d="M 54 252 
L 206.181818 252 
L 206.181818 153.163636 
L 54 153.163636 
z
" style="fill:#ffffff;"/>
   </g>
   <g id="matplotlib.axis_5">
    <g id="xtick_11">
     <g id="line2d_23">
      <g>
       <use style="stroke:#000000;stroke-width:0.8;" x="60.917355" xlink:href="#mb0fdb0ed05" y="252"/>
      </g>
     </g>
     <g id="text_19">
      <!-- 0 -->
      <g transform="translate(57.736105 266.598437)scale(0.1 -0.1)">
       <use xlink:href="#DejaVuSans-48"/>
      </g>
     </g>
    </g>
    <g id="xtick_12">
     <g id="line2d_24">
      <g>
       <use style="stroke:#000000;stroke-width:0.8;" x="93.54639" xlink:href="#mb0fdb0ed05" y="252"/>
      </g>
     </g>
     <g id="text_20">
      <!-- 50 -->
      <g transform="translate(87.18389 266.598437)scale(0.1 -0.1)">
       <use xlink:href="#DejaVuSans-53"/>
       <use x="63.623047" xlink:href="#DejaVuSans-48"/>
      </g>
     </g>
    </g>
    <g id="xtick_13">
     <g id="line2d_25">
      <g>
       <use style="stroke:#000000;stroke-width:0.8;" x="126.175425" xlink:href="#mb0fdb0ed05" y="252"/>
      </g>
     </g>
     <g id="text_21">
      <!-- 100 -->
      <g transform="translate(116.631675 266.598437)scale(0.1 -0.1)">
       <use xlink:href="#DejaVuSans-49"/>
       <use x="63.623047" xlink:href="#DejaVuSans-48"/>
       <use x="127.246094" xlink:href="#DejaVuSans-48"/>
      </g>
     </g>
    </g>
    <g id="xtick_14">
     <g id="line2d_26">
      <g>
       <use style="stroke:#000000;stroke-width:0.8;" x="158.80446" xlink:href="#mb0fdb0ed05" y="252"/>
      </g>
     </g>
     <g id="text_22">
      <!-- 150 -->
      <g transform="translate(149.26071 266.598437)scale(0.1 -0.1)">
       <use xlink:href="#DejaVuSans-49"/>
       <use x="63.623047" xlink:href="#DejaVuSans-53"/>
       <use x="127.246094" xlink:href="#DejaVuSans-48"/>
      </g>
     </g>
    </g>
    <g id="xtick_15">
     <g id="line2d_27">
      <g>
       <use style="stroke:#000000;stroke-width:0.8;" x="191.433494" xlink:href="#mb0fdb0ed05" y="252"/>
      </g>
     </g>
     <g id="text_23">
      <!-- 200 -->
      <g transform="translate(181.889744 266.598437)scale(0.1 -0.1)">
       <use xlink:href="#DejaVuSans-50"/>
       <use x="63.623047" xlink:href="#DejaVuSans-48"/>
       <use x="127.246094" xlink:href="#DejaVuSans-48"/>
      </g>
     </g>
    </g>
   </g>
   <g id="matplotlib.axis_6">
    <g id="ytick_7">
     <g id="line2d_28">
      <g>
       <use style="stroke:#000000;stroke-width:0.8;" x="54" xlink:href="#m19ecfb445e" y="241.613299"/>
      </g>
     </g>
     <g id="text_24">
      <!-- −2000 -->
      <g transform="translate(13.170313 245.412518)scale(0.1 -0.1)">
       <defs>
        <path d="M 10.59375 35.5 
L 73.1875 35.5 
L 73.1875 27.203125 
L 10.59375 27.203125 
z
" id="DejaVuSans-8722"/>
       </defs>
       <use xlink:href="#DejaVuSans-8722"/>
       <use x="83.789062" xlink:href="#DejaVuSans-50"/>
       <use x="147.412109" xlink:href="#DejaVuSans-48"/>
       <use x="211.035156" xlink:href="#DejaVuSans-48"/>
       <use x="274.658203" xlink:href="#DejaVuSans-48"/>
      </g>
     </g>
    </g>
    <g id="ytick_8">
     <g id="line2d_29">
      <g>
       <use style="stroke:#000000;stroke-width:0.8;" x="54" xlink:href="#m19ecfb445e" y="216.867496"/>
      </g>
     </g>
     <g id="text_25">
      <!-- −1000 -->
      <g transform="translate(13.170313 220.666715)scale(0.1 -0.1)">
       <use xlink:href="#DejaVuSans-8722"/>
       <use x="83.789062" xlink:href="#DejaVuSans-49"/>
       <use x="147.412109" xlink:href="#DejaVuSans-48"/>
       <use x="211.035156" xlink:href="#DejaVuSans-48"/>
       <use x="274.658203" xlink:href="#DejaVuSans-48"/>
      </g>
     </g>
    </g>
    <g id="ytick_9">
     <g id="line2d_30">
      <g>
       <use style="stroke:#000000;stroke-width:0.8;" x="54" xlink:href="#m19ecfb445e" y="192.121692"/>
      </g>
     </g>
     <g id="text_26">
      <!-- 0 -->
      <g transform="translate(40.6375 195.920911)scale(0.1 -0.1)">
       <use xlink:href="#DejaVuSans-48"/>
      </g>
     </g>
    </g>
    <g id="ytick_10">
     <g id="line2d_31">
      <g>
       <use style="stroke:#000000;stroke-width:0.8;" x="54" xlink:href="#m19ecfb445e" y="167.375889"/>
      </g>
     </g>
     <g id="text_27">
      <!-- 1000 -->
      <g transform="translate(21.55 171.175108)scale(0.1 -0.1)">
       <use xlink:href="#DejaVuSans-49"/>
       <use x="63.623047" xlink:href="#DejaVuSans-48"/>
       <use x="127.246094" xlink:href="#DejaVuSans-48"/>
       <use x="190.869141" xlink:href="#DejaVuSans-48"/>
      </g>
     </g>
    </g>
   </g>
   <g id="line2d_32">
    <path clip-path="url(#p44856175b3)" d="M 60.917355 193.876606 
L 61.569936 188.745306 
L 62.222517 191.474974 
L 62.875097 188.906532 
L 63.527678 189.501911 
L 64.180259 192.388514 
L 64.83284 192.544225 
L 65.48542 191.210716 
L 66.138001 196.39208 
L 66.790582 199.878215 
L 67.443162 189.1635 
L 68.095743 188.996733 
L 68.748324 186.415029 
L 69.400904 187.188859 
L 70.053485 189.191226 
L 70.706066 202.143464 
L 71.358646 206.150847 
L 72.011227 189.353776 
L 72.663808 188.625855 
L 73.316389 182.069466 
L 73.968969 183.330852 
L 74.62155 187.751553 
L 75.274131 206.197618 
L 75.926711 210.518999 
L 76.579292 189.484549 
L 77.231873 188.374576 
L 77.884453 179.170814 
L 78.537034 180.801025 
L 79.189615 186.82511 
L 79.842196 208.752702 
L 80.494776 213.208799 
L 81.147357 189.563006 
L 81.799938 188.228198 
L 82.452518 177.538064 
L 83.105099 179.430197 
L 83.75768 186.345311 
L 84.41026 210.006875 
L 85.062841 214.446376 
L 85.715422 189.596333 
L 86.368002 188.172022 
L 87.020583 176.990204 
L 87.673164 179.049188 
L 88.325745 186.245572 
L 88.978325 210.158297 
L 89.630906 214.457858 
L 90.283487 189.591717 
L 90.936067 188.191348 
L 91.588648 177.346227 
L 92.241229 179.488819 
L 92.893809 186.459306 
L 93.54639 209.405126 
L 94.198971 213.469374 
L 94.851552 189.556347 
L 95.504132 188.271476 
L 96.156713 178.42512 
L 96.809294 180.579908 
L 97.461874 186.919929 
L 98.114455 207.945522 
L 98.767036 211.707051 
L 99.419616 189.497408 
L 100.072197 188.397708 
L 100.724778 180.045876 
L 101.377358 182.153278 
L 102.029939 187.560854 
L 102.68252 205.977645 
L 103.335101 209.397019 
L 103.987681 189.422087 
L 104.640262 188.555343 
L 105.292843 182.027483 
L 105.945423 184.039747 
L 106.598004 188.315495 
L 107.250585 203.699653 
L 107.903165 206.765405 
L 108.555746 189.337573 
L 109.208327 188.729683 
L 109.860908 184.188932 
L 110.513488 186.070135 
L 111.166069 189.117268 
L 111.81865 201.309706 
L 112.47123 204.038339 
L 113.123811 189.251052 
L 113.776392 188.906027 
L 114.428972 186.349212 
L 115.734134 189.899587 
L 116.386714 199.005963 
L 117.039295 201.442015 
L 117.691876 189.169723 
L 118.344457 189.069596 
L 118.997037 188.325033 
L 119.649618 189.881903 
L 120.302199 190.593166 
L 120.954779 196.999171 
L 121.60736 199.223579 
L 122.259941 189.101688 
L 122.912521 189.20328 
L 123.565102 189.898952 
L 124.217683 191.280739 
L 124.870264 191.113459 
L 125.522844 195.546284 
L 126.175425 197.680849 
L 126.828006 189.056516 
L 127.480586 189.287369 
L 128.133167 190.827243 
L 128.785748 192.043508 
L 129.438328 191.370566 
L 130.090909 194.914864 
L 130.74349 197.118662 
L 131.39607 189.043786 
L 132.048651 189.302869 
L 132.701232 190.890378 
L 133.353813 191.987193 
L 134.006393 191.305467 
L 134.658974 195.226512 
L 135.311555 197.595174 
L 135.964135 189.062323 
L 136.616716 189.25894 
L 137.921877 191.374911 
L 138.574458 191.049747 
L 139.227039 196.018995 
L 139.87962 198.521242 
L 140.5322 189.091997 
L 141.184781 189.198679 
L 141.837362 189.56124 
L 142.489942 190.723003 
L 143.142523 190.807624 
L 143.795104 196.684123 
L 144.447684 199.203095 
L 145.100265 189.110844 
L 146.405426 189.247122 
L 147.058007 190.508406 
L 147.710588 190.754087 
L 148.363169 196.754605 
L 149.015749 199.188576 
L 149.66833 189.107597 
L 150.320911 189.178332 
L 150.973491 189.451644 
L 151.626072 190.748716 
L 152.278653 190.865861 
L 152.931233 196.377206 
L 153.583814 198.714146 
L 154.236395 189.09136 
L 154.888976 189.213435 
L 155.541556 189.901383 
L 156.194137 191.179919 
L 156.846718 191.037693 
L 157.499298 195.865933 
L 158.151879 198.138137 
L 158.80446 189.073521 
L 159.45704 189.248487 
L 160.762202 191.533927 
L 161.414782 191.164069 
L 162.067363 195.534794 
L 162.719944 197.818877 
L 163.372525 189.065469 
L 164.025105 189.260193 
L 165.330267 191.542652 
L 165.982847 191.139476 
L 166.635428 195.697801 
L 167.288009 198.114698 
L 167.940589 189.078594 
L 168.59317 189.225262 
L 169.245751 189.853565 
L 169.898332 190.938007 
L 170.550912 190.8584 
L 171.203493 196.668961 
L 171.856074 199.38393 
L 172.508654 189.124283 
L 173.161235 189.120399 
L 173.813816 188.415833 
L 174.466396 189.451902 
L 175.118977 190.215328 
L 175.771558 198.762285 
L 176.424138 201.984902 
L 177.076719 189.213927 
L 177.7293 188.922311 
L 178.381881 185.789148 
L 179.034461 186.816251 
L 179.687042 189.104746 
L 180.339623 202.291782 
L 180.992203 206.275946 
L 181.644784 189.358913 
L 182.297365 188.607706 
L 182.949945 181.686676 
L 183.602526 182.762965 
L 184.255107 187.42114 
L 184.907688 207.571462 
L 185.560268 212.615391 
L 186.212849 189.570631 
L 186.86543 188.15329 
L 187.51801 175.821584 
L 188.170591 177.023957 
L 188.823172 185.058997 
L 189.475752 214.915335 
L 190.128333 221.361568 
L 190.780914 189.860469 
L 191.433494 187.535771 
L 192.086075 167.907036 
L 192.738656 169.331138 
L 193.391237 181.912804 
L 194.043817 224.637409 
L 194.696398 232.872807 
L 195.348979 190.239816 
L 196.001559 186.731854 
L 196.65414 157.656198 
L 197.306721 159.416421 
L 197.959301 177.877046 
L 198.611882 237.051695 
L 199.264463 247.507438 
L 199.264463 247.507438 
" style="fill:none;stroke:#1f77b4;stroke-linecap:square;stroke-width:1.5;"/>
   </g>
   <g id="patch_13">
    <path d="M 54 252 
L 54 153.163636 
" style="fill:none;stroke:#000000;stroke-linecap:square;stroke-linejoin:miter;stroke-width:0.8;"/>
   </g>
   <g id="patch_14">
    <path d="M 206.181818 252 
L 206.181818 153.163636 
" style="fill:none;stroke:#000000;stroke-linecap:square;stroke-linejoin:miter;stroke-width:0.8;"/>
   </g>
   <g id="patch_15">
    <path d="M 54 252 
L 206.181818 252 
" style="fill:none;stroke:#000000;stroke-linecap:square;stroke-linejoin:miter;stroke-width:0.8;"/>
   </g>
   <g id="patch_16">
    <path d="M 54 153.163636 
L 206.181818 153.163636 
" style="fill:none;stroke:#000000;stroke-linecap:square;stroke-linejoin:miter;stroke-width:0.8;"/>
   </g>
   <g id="legend_3">
    <g id="line2d_33">
     <path d="M 63 166.262074 
L 83 166.262074 
" style="fill:none;stroke:#1f77b4;stroke-linecap:square;stroke-width:1.5;"/>
    </g>
    <g id="line2d_34"/>
    <g id="text_28">
     <!-- Seasonal Component -->
     <g transform="translate(91 169.762074)scale(0.1 -0.1)">
      <defs>
       <path d="M 30.609375 48.390625 
Q 23.390625 48.390625 19.1875 42.75 
Q 14.984375 37.109375 14.984375 27.296875 
Q 14.984375 17.484375 19.15625 11.84375 
Q 23.34375 6.203125 30.609375 6.203125 
Q 37.796875 6.203125 41.984375 11.859375 
Q 46.1875 17.53125 46.1875 27.296875 
Q 46.1875 37.015625 41.984375 42.703125 
Q 37.796875 48.390625 30.609375 48.390625 
z
M 30.609375 56 
Q 42.328125 56 49.015625 48.375 
Q 55.71875 40.765625 55.71875 27.296875 
Q 55.71875 13.875 49.015625 6.21875 
Q 42.328125 -1.421875 30.609375 -1.421875 
Q 18.84375 -1.421875 12.171875 6.21875 
Q 5.515625 13.875 5.515625 27.296875 
Q 5.515625 40.765625 12.171875 48.375 
Q 18.84375 56 30.609375 56 
z
" id="DejaVuSans-111"/>
       <path d="M 9.421875 75.984375 
L 18.40625 75.984375 
L 18.40625 0 
L 9.421875 0 
z
" id="DejaVuSans-108"/>
       <path d="M 64.40625 67.28125 
L 64.40625 56.890625 
Q 59.421875 61.53125 53.78125 63.8125 
Q 48.140625 66.109375 41.796875 66.109375 
Q 29.296875 66.109375 22.65625 58.46875 
Q 16.015625 50.828125 16.015625 36.375 
Q 16.015625 21.96875 22.65625 14.328125 
Q 29.296875 6.6875 41.796875 6.6875 
Q 48.140625 6.6875 53.78125 8.984375 
Q 59.421875 11.28125 64.40625 15.921875 
L 64.40625 5.609375 
Q 59.234375 2.09375 53.4375 0.328125 
Q 47.65625 -1.421875 41.21875 -1.421875 
Q 24.65625 -1.421875 15.125 8.703125 
Q 5.609375 18.84375 5.609375 36.375 
Q 5.609375 53.953125 15.125 64.078125 
Q 24.65625 74.21875 41.21875 74.21875 
Q 47.75 74.21875 53.53125 72.484375 
Q 59.328125 70.75 64.40625 67.28125 
z
" id="DejaVuSans-67"/>
       <path d="M 18.109375 8.203125 
L 18.109375 -20.796875 
L 9.078125 -20.796875 
L 9.078125 54.6875 
L 18.109375 54.6875 
L 18.109375 46.390625 
Q 20.953125 51.265625 25.265625 53.625 
Q 29.59375 56 35.59375 56 
Q 45.5625 56 51.78125 48.09375 
Q 58.015625 40.1875 58.015625 27.296875 
Q 58.015625 14.40625 51.78125 6.484375 
Q 45.5625 -1.421875 35.59375 -1.421875 
Q 29.59375 -1.421875 25.265625 0.953125 
Q 20.953125 3.328125 18.109375 8.203125 
z
M 48.6875 27.296875 
Q 48.6875 37.203125 44.609375 42.84375 
Q 40.53125 48.484375 33.40625 48.484375 
Q 26.265625 48.484375 22.1875 42.84375 
Q 18.109375 37.203125 18.109375 27.296875 
Q 18.109375 17.390625 22.1875 11.75 
Q 26.265625 6.109375 33.40625 6.109375 
Q 40.53125 6.109375 44.609375 11.75 
Q 48.6875 17.390625 48.6875 27.296875 
z
" id="DejaVuSans-112"/>
      </defs>
      <use xlink:href="#DejaVuSans-83"/>
      <use x="63.476562" xlink:href="#DejaVuSans-101"/>
      <use x="125" xlink:href="#DejaVuSans-97"/>
      <use x="186.279297" xlink:href="#DejaVuSans-115"/>
      <use x="238.378906" xlink:href="#DejaVuSans-111"/>
      <use x="299.560547" xlink:href="#DejaVuSans-110"/>
      <use x="362.939453" xlink:href="#DejaVuSans-97"/>
      <use x="424.21875" xlink:href="#DejaVuSans-108"/>
      <use x="452.001953" xlink:href="#DejaVuSans-32"/>
      <use x="483.789062" xlink:href="#DejaVuSans-67"/>
      <use x="553.613281" xlink:href="#DejaVuSans-111"/>
      <use x="614.794922" xlink:href="#DejaVuSans-109"/>
      <use x="712.207031" xlink:href="#DejaVuSans-112"/>
      <use x="775.683594" xlink:href="#DejaVuSans-111"/>
      <use x="836.865234" xlink:href="#DejaVuSans-110"/>
      <use x="900.244141" xlink:href="#DejaVuSans-101"/>
      <use x="961.767578" xlink:href="#DejaVuSans-110"/>
      <use x="1025.146484" xlink:href="#DejaVuSans-116"/>
     </g>
    </g>
   </g>
  </g>
  <g id="axes_4">
   <g id="patch_17">
    <path d="M 236.618182 252 
L 388.8 252 
L 388.8 153.163636 
L 236.618182 153.163636 
z
" style="fill:#ffffff;"/>
   </g>
   <g id="matplotlib.axis_7">
    <g id="xtick_16">
     <g id="line2d_35">
      <g>
       <use style="stroke:#000000;stroke-width:0.8;" x="243.535537" xlink:href="#mb0fdb0ed05" y="252"/>
      </g>
     </g>
     <g id="text_29">
      <!-- 0 -->
      <g transform="translate(240.354287 266.598437)scale(0.1 -0.1)">
       <use xlink:href="#DejaVuSans-48"/>
      </g>
     </g>
    </g>
    <g id="xtick_17">
     <g id="line2d_36">
      <g>
       <use style="stroke:#000000;stroke-width:0.8;" x="276.164572" xlink:href="#mb0fdb0ed05" y="252"/>
      </g>
     </g>
     <g id="text_30">
      <!-- 50 -->
      <g transform="translate(269.802072 266.598437)scale(0.1 -0.1)">
       <use xlink:href="#DejaVuSans-53"/>
       <use x="63.623047" xlink:href="#DejaVuSans-48"/>
      </g>
     </g>
    </g>
    <g id="xtick_18">
     <g id="line2d_37">
      <g>
       <use style="stroke:#000000;stroke-width:0.8;" x="308.793607" xlink:href="#mb0fdb0ed05" y="252"/>
      </g>
     </g>
     <g id="text_31">
      <!-- 100 -->
      <g transform="translate(299.249857 266.598437)scale(0.1 -0.1)">
       <use xlink:href="#DejaVuSans-49"/>
       <use x="63.623047" xlink:href="#DejaVuSans-48"/>
       <use x="127.246094" xlink:href="#DejaVuSans-48"/>
      </g>
     </g>
    </g>
    <g id="xtick_19">
     <g id="line2d_38">
      <g>
       <use style="stroke:#000000;stroke-width:0.8;" x="341.422642" xlink:href="#mb0fdb0ed05" y="252"/>
      </g>
     </g>
     <g id="text_32">
      <!-- 150 -->
      <g transform="translate(331.878892 266.598437)scale(0.1 -0.1)">
       <use xlink:href="#DejaVuSans-49"/>
       <use x="63.623047" xlink:href="#DejaVuSans-53"/>
       <use x="127.246094" xlink:href="#DejaVuSans-48"/>
      </g>
     </g>
    </g>
    <g id="xtick_20">
     <g id="line2d_39">
      <g>
       <use style="stroke:#000000;stroke-width:0.8;" x="374.051676" xlink:href="#mb0fdb0ed05" y="252"/>
      </g>
     </g>
     <g id="text_33">
      <!-- 200 -->
      <g transform="translate(364.507926 266.598437)scale(0.1 -0.1)">
       <use xlink:href="#DejaVuSans-50"/>
       <use x="63.623047" xlink:href="#DejaVuSans-48"/>
       <use x="127.246094" xlink:href="#DejaVuSans-48"/>
      </g>
     </g>
    </g>
   </g>
   <g id="matplotlib.axis_8">
    <g id="ytick_11">
     <g id="line2d_40">
      <g>
       <use style="stroke:#000000;stroke-width:0.8;" x="236.618182" xlink:href="#m19ecfb445e" y="241.914181"/>
      </g>
     </g>
     <g id="text_34">
      <!-- −1000 -->
      <g transform="translate(195.788494 245.7134)scale(0.1 -0.1)">
       <use xlink:href="#DejaVuSans-8722"/>
       <use x="83.789062" xlink:href="#DejaVuSans-49"/>
       <use x="147.412109" xlink:href="#DejaVuSans-48"/>
       <use x="211.035156" xlink:href="#DejaVuSans-48"/>
       <use x="274.658203" xlink:href="#DejaVuSans-48"/>
      </g>
     </g>
    </g>
    <g id="ytick_12">
     <g id="line2d_41">
      <g>
       <use style="stroke:#000000;stroke-width:0.8;" x="236.618182" xlink:href="#m19ecfb445e" y="209.264126"/>
      </g>
     </g>
     <g id="text_35">
      <!-- 0 -->
      <g transform="translate(223.255682 213.063345)scale(0.1 -0.1)">
       <use xlink:href="#DejaVuSans-48"/>
      </g>
     </g>
    </g>
    <g id="ytick_13">
     <g id="line2d_42">
      <g>
       <use style="stroke:#000000;stroke-width:0.8;" x="236.618182" xlink:href="#m19ecfb445e" y="176.614071"/>
      </g>
     </g>
     <g id="text_36">
      <!-- 1000 -->
      <g transform="translate(204.168182 180.41329)scale(0.1 -0.1)">
       <use xlink:href="#DejaVuSans-49"/>
       <use x="63.623047" xlink:href="#DejaVuSans-48"/>
       <use x="127.246094" xlink:href="#DejaVuSans-48"/>
       <use x="190.869141" xlink:href="#DejaVuSans-48"/>
      </g>
     </g>
    </g>
   </g>
   <g id="line2d_43">
    <path clip-path="url(#pd7a8fdad20)" d="M 243.535537 157.656198 
L 244.188118 175.643737 
L 244.840699 182.699334 
L 245.493279 193.186428 
L 246.14586 198.295926 
L 246.798441 199.086121 
L 247.451021 205.322611 
L 248.103602 215.796487 
L 248.756183 221.062031 
L 249.408763 221.737255 
L 250.061344 238.01668 
L 251.366506 243.307828 
L 252.019086 247.206459 
L 252.671667 244.314222 
L 253.324248 235.261365 
L 253.976828 229.781336 
L 254.629409 226.45085 
L 255.28199 231.148732 
L 255.93457 234.081695 
L 256.587151 224.171381 
L 257.239732 219.617039 
L 257.892312 211.376042 
L 258.544893 208.254743 
L 259.197474 193.634637 
L 259.850055 190.479591 
L 261.155216 194.875267 
L 261.807797 187.983693 
L 262.460377 190.895102 
L 263.112958 200.895113 
L 263.765539 178.860295 
L 264.418119 177.224071 
L 265.0707 202.902207 
L 265.723281 210.629743 
L 266.375862 220.506978 
L 267.028442 214.164828 
L 267.681023 211.933519 
L 268.333604 222.530182 
L 268.986184 220.287935 
L 270.291346 200.89643 
L 270.943926 202.174376 
L 271.596507 177.805963 
L 272.249088 200.054204 
L 272.901668 199.412924 
L 273.554249 203.676004 
L 274.20683 193.387094 
L 274.859411 200.563977 
L 275.511991 196.210019 
L 276.164572 204.247032 
L 276.817153 206.448103 
L 277.469733 196.078057 
L 278.122314 195.343509 
L 278.774895 183.464398 
L 279.427475 194.17465 
L 280.080056 191.265314 
L 280.732637 210.51506 
L 281.385218 211.772947 
L 282.037798 225.469243 
L 282.690379 214.923599 
L 283.34296 218.835721 
L 283.99554 215.604944 
L 284.648121 228.852106 
L 285.300702 231.373174 
L 285.953282 218.888504 
L 286.605863 201.404572 
L 287.258444 205.876845 
L 287.911024 214.644921 
L 288.563605 231.537544 
L 289.216186 226.150831 
L 289.868767 217.706508 
L 290.521347 218.606674 
L 291.173928 214.273638 
L 291.826509 196.880461 
L 292.479089 211.020264 
L 293.13167 210.157036 
L 293.784251 220.037027 
L 295.089412 217.248131 
L 295.741993 225.433014 
L 296.394574 221.607121 
L 297.047154 216.876563 
L 297.699735 214.300517 
L 298.352316 216.597229 
L 299.004896 215.142122 
L 299.657477 210.587992 
L 300.310058 212.632644 
L 300.962638 208.246695 
L 301.615219 211.114886 
L 302.2678 210.369923 
L 302.92038 211.248167 
L 303.572961 211.003823 
L 304.225542 208.667683 
L 304.878123 207.868687 
L 306.183284 199.773018 
L 306.835865 202.298161 
L 307.488445 199.748443 
L 308.793607 195.916066 
L 309.446187 199.011069 
L 310.098768 195.704618 
L 310.751349 195.829307 
L 311.40393 193.25279 
L 312.05651 194.814304 
L 312.709091 199.842451 
L 313.361672 198.434007 
L 314.014252 200.770819 
L 314.666833 201.021067 
L 315.319414 202.927655 
L 315.971994 203.782239 
L 316.624575 206.966722 
L 317.277156 203.197472 
L 317.929736 207.600356 
L 318.582317 210.554838 
L 319.234898 214.909034 
L 319.887479 213.503309 
L 320.540059 214.457085 
L 321.19264 216.989931 
L 321.845221 217.035903 
L 322.497801 209.768759 
L 323.150382 218.141678 
L 323.802963 222.369362 
L 324.455543 219.466034 
L 325.108124 218.266179 
L 325.760705 223.711772 
L 326.413286 220.357831 
L 327.065866 220.099838 
L 328.371028 223.271941 
L 329.023608 220.591086 
L 329.676189 221.083383 
L 330.32877 224.683231 
L 330.98135 219.233036 
L 331.633931 217.529153 
L 332.286512 218.423995 
L 332.939092 218.856908 
L 333.591673 217.56409 
L 334.244254 215.200312 
L 334.896835 215.562513 
L 335.549415 215.730883 
L 336.201996 210.857019 
L 336.854577 213.160585 
L 337.507157 212.785742 
L 338.159738 204.873188 
L 338.812319 206.278192 
L 339.464899 214.013911 
L 340.11748 211.36233 
L 341.422642 202.919285 
L 342.075222 202.900563 
L 343.380384 197.085789 
L 344.032964 201.89155 
L 344.685545 203.948902 
L 345.338126 203.458097 
L 345.990706 186.965705 
L 346.643287 191.157396 
L 347.295868 194.225764 
L 347.948448 194.962873 
L 348.601029 195.201512 
L 349.25361 205.1231 
L 349.906191 205.83222 
L 350.558771 196.236011 
L 351.211352 203.575358 
L 351.863933 198.754481 
L 352.516513 191.348638 
L 353.169094 201.689418 
L 353.821675 207.874242 
L 354.474255 206.290759 
L 355.126836 208.936529 
L 355.779417 210.439922 
L 356.431998 210.409093 
L 357.084578 204.945076 
L 357.737159 204.711294 
L 358.38974 209.860605 
L 359.04232 211.249029 
L 359.694901 220.806664 
L 360.347482 200.712392 
L 361.000062 184.673167 
L 361.652643 184.648358 
L 363.610385 195.680339 
L 364.262966 177.533288 
L 364.915547 203.05654 
L 365.568127 217.523458 
L 366.220708 214.134086 
L 366.873289 225.135922 
L 367.525869 226.169891 
L 368.17845 244.523387 
L 368.831031 242.41589 
L 369.483611 247.507438 
L 370.136192 246.028903 
L 370.788773 245.073686 
L 371.441354 233.50972 
L 372.093934 207.273218 
L 372.746515 195.09885 
L 373.399096 238.377132 
L 374.051676 226.088377 
L 374.704257 243.010248 
L 375.356838 235.113545 
L 376.009418 243.01872 
L 376.661999 216.216886 
L 377.31458 211.880959 
L 377.96716 186.688765 
L 378.619741 195.346276 
L 379.272322 176.456033 
L 379.924903 176.182609 
L 380.577483 158.691466 
L 381.230064 199.202684 
L 381.882645 198.012904 
L 381.882645 198.012904 
" style="fill:none;stroke:#1f77b4;stroke-linecap:square;stroke-width:1.5;"/>
   </g>
   <g id="patch_18">
    <path d="M 236.618182 252 
L 236.618182 153.163636 
" style="fill:none;stroke:#000000;stroke-linecap:square;stroke-linejoin:miter;stroke-width:0.8;"/>
   </g>
   <g id="patch_19">
    <path d="M 388.8 252 
L 388.8 153.163636 
" style="fill:none;stroke:#000000;stroke-linecap:square;stroke-linejoin:miter;stroke-width:0.8;"/>
   </g>
   <g id="patch_20">
    <path d="M 236.618182 252 
L 388.8 252 
" style="fill:none;stroke:#000000;stroke-linecap:square;stroke-linejoin:miter;stroke-width:0.8;"/>
   </g>
   <g id="patch_21">
    <path d="M 236.618182 153.163636 
L 388.8 153.163636 
" style="fill:none;stroke:#000000;stroke-linecap:square;stroke-linejoin:miter;stroke-width:0.8;"/>
   </g>
   <g id="legend_4">
    <g id="line2d_44">
     <path d="M 245.618182 166.262074 
L 265.618182 166.262074 
" style="fill:none;stroke:#1f77b4;stroke-linecap:square;stroke-width:1.5;"/>
    </g>
    <g id="line2d_45"/>
    <g id="text_37">
     <!-- Residual -->
     <g transform="translate(273.618182 169.762074)scale(0.1 -0.1)">
      <defs>
       <path d="M 44.390625 34.1875 
Q 47.5625 33.109375 50.5625 29.59375 
Q 53.5625 26.078125 56.59375 19.921875 
L 66.609375 0 
L 56 0 
L 46.6875 18.703125 
Q 43.0625 26.03125 39.671875 28.421875 
Q 36.28125 30.8125 30.421875 30.8125 
L 19.671875 30.8125 
L 19.671875 0 
L 9.8125 0 
L 9.8125 72.90625 
L 32.078125 72.90625 
Q 44.578125 72.90625 50.734375 67.671875 
Q 56.890625 62.453125 56.890625 51.90625 
Q 56.890625 45.015625 53.6875 40.46875 
Q 50.484375 35.9375 44.390625 34.1875 
z
M 19.671875 64.796875 
L 19.671875 38.921875 
L 32.078125 38.921875 
Q 39.203125 38.921875 42.84375 42.21875 
Q 46.484375 45.515625 46.484375 51.90625 
Q 46.484375 58.296875 42.84375 61.546875 
Q 39.203125 64.796875 32.078125 64.796875 
z
" id="DejaVuSans-82"/>
       <path d="M 8.5 21.578125 
L 8.5 54.6875 
L 17.484375 54.6875 
L 17.484375 21.921875 
Q 17.484375 14.15625 20.5 10.265625 
Q 23.53125 6.390625 29.59375 6.390625 
Q 36.859375 6.390625 41.078125 11.03125 
Q 45.3125 15.671875 45.3125 23.6875 
L 45.3125 54.6875 
L 54.296875 54.6875 
L 54.296875 0 
L 45.3125 0 
L 45.3125 8.40625 
Q 42.046875 3.421875 37.71875 1 
Q 33.40625 -1.421875 27.6875 -1.421875 
Q 18.265625 -1.421875 13.375 4.4375 
Q 8.5 10.296875 8.5 21.578125 
z
M 31.109375 56 
z
" id="DejaVuSans-117"/>
      </defs>
      <use xlink:href="#DejaVuSans-82"/>
      <use x="64.982422" xlink:href="#DejaVuSans-101"/>
      <use x="126.505859" xlink:href="#DejaVuSans-115"/>
      <use x="178.605469" xlink:href="#DejaVuSans-105"/>
      <use x="206.388672" xlink:href="#DejaVuSans-100"/>
      <use x="269.865234" xlink:href="#DejaVuSans-117"/>
      <use x="333.244141" xlink:href="#DejaVuSans-97"/>
      <use x="394.523438" xlink:href="#DejaVuSans-108"/>
     </g>
    </g>
   </g>
  </g>
 </g>
 <defs>
  <clipPath id="pfd62126e3e">
   <rect height="98.836364" width="152.181818" x="54" y="34.56"/>
  </clipPath>
  <clipPath id="p822965cdd7">
   <rect height="98.836364" width="152.181818" x="236.618182" y="34.56"/>
  </clipPath>
  <clipPath id="p44856175b3">
   <rect height="98.836364" width="152.181818" x="54" y="153.163636"/>
  </clipPath>
  <clipPath id="pd7a8fdad20">
   <rect height="98.836364" width="152.181818" x="236.618182" y="153.163636"/>
  </clipPath>
 </defs>
</svg>
