<?xml version="1.0" encoding="utf-8" standalone="no"?>
<!DOCTYPE svg PUBLIC "-//W3C//DTD SVG 1.1//EN"
  "http://www.w3.org/Graphics/SVG/1.1/DTD/svg11.dtd">
<!-- Created with matplotlib (https://matplotlib.org/) -->
<svg height="288pt" version="1.1" viewBox="0 0 432 288" width="432pt" xmlns="http://www.w3.org/2000/svg" xmlns:xlink="http://www.w3.org/1999/xlink">
 <metadata>
  <rdf:RDF xmlns:cc="http://creativecommons.org/ns#" xmlns:dc="http://purl.org/dc/elements/1.1/" xmlns:rdf="http://www.w3.org/1999/02/22-rdf-syntax-ns#">
   <cc:Work>
    <dc:type rdf:resource="http://purl.org/dc/dcmitype/StillImage"/>
    <dc:date>2020-10-29T15:20:02.778245</dc:date>
    <dc:format>image/svg+xml</dc:format>
    <dc:creator>
     <cc:Agent>
      <dc:title>Matplotlib v3.3.2, https://matplotlib.org/</dc:title>
     </cc:Agent>
    </dc:creator>
   </cc:Work>
  </rdf:RDF>
 </metadata>
 <defs>
  <style type="text/css">*{stroke-linecap:butt;stroke-linejoin:round;}</style>
 </defs>
 <g id="figure_1">
  <g id="patch_1">
   <path d="M 0 288 
L 432 288 
L 432 0 
L 0 0 
z
" style="fill:none;"/>
  </g>
  <g id="axes_1">
   <g id="patch_2">
    <path d="M 54 133.396364 
L 206.181818 133.396364 
L 206.181818 34.56 
L 54 34.56 
z
" style="fill:#ffffff;"/>
   </g>
   <g id="matplotlib.axis_1">
    <g id="xtick_1">
     <g id="line2d_1">
      <defs>
       <path d="M 0 0 
L 0 3.5 
" id="mf10c9621ff" style="stroke:#000000;stroke-width:0.8;"/>
      </defs>
      <g>
       <use style="stroke:#000000;stroke-width:0.8;" x="60.917355" xlink:href="#mf10c9621ff" y="133.396364"/>
      </g>
     </g>
     <g id="text_1">
      <!-- 0 -->
      <g transform="translate(57.736105 147.994801)scale(0.1 -0.1)">
       <defs>
        <path d="M 31.78125 66.40625 
Q 24.171875 66.40625 20.328125 58.90625 
Q 16.5 51.421875 16.5 36.375 
Q 16.5 21.390625 20.328125 13.890625 
Q 24.171875 6.390625 31.78125 6.390625 
Q 39.453125 6.390625 43.28125 13.890625 
Q 47.125 21.390625 47.125 36.375 
Q 47.125 51.421875 43.28125 58.90625 
Q 39.453125 66.40625 31.78125 66.40625 
z
M 31.78125 74.21875 
Q 44.046875 74.21875 50.515625 64.515625 
Q 56.984375 54.828125 56.984375 36.375 
Q 56.984375 17.96875 50.515625 8.265625 
Q 44.046875 -1.421875 31.78125 -1.421875 
Q 19.53125 -1.421875 13.0625 8.265625 
Q 6.59375 17.96875 6.59375 36.375 
Q 6.59375 54.828125 13.0625 64.515625 
Q 19.53125 74.21875 31.78125 74.21875 
z
" id="DejaVuSans-48"/>
       </defs>
       <use xlink:href="#DejaVuSans-48"/>
      </g>
     </g>
    </g>
    <g id="xtick_2">
     <g id="line2d_2">
      <g>
       <use style="stroke:#000000;stroke-width:0.8;" x="113.321563" xlink:href="#mf10c9621ff" y="133.396364"/>
      </g>
     </g>
     <g id="text_2">
      <!-- 100 -->
      <g transform="translate(103.777813 147.994801)scale(0.1 -0.1)">
       <defs>
        <path d="M 12.40625 8.296875 
L 28.515625 8.296875 
L 28.515625 63.921875 
L 10.984375 60.40625 
L 10.984375 69.390625 
L 28.421875 72.90625 
L 38.28125 72.90625 
L 38.28125 8.296875 
L 54.390625 8.296875 
L 54.390625 0 
L 12.40625 0 
z
" id="DejaVuSans-49"/>
       </defs>
       <use xlink:href="#DejaVuSans-49"/>
       <use x="63.623047" xlink:href="#DejaVuSans-48"/>
       <use x="127.246094" xlink:href="#DejaVuSans-48"/>
      </g>
     </g>
    </g>
    <g id="xtick_3">
     <g id="line2d_3">
      <g>
       <use style="stroke:#000000;stroke-width:0.8;" x="165.72577" xlink:href="#mf10c9621ff" y="133.396364"/>
      </g>
     </g>
     <g id="text_3">
      <!-- 200 -->
      <g transform="translate(156.18202 147.994801)scale(0.1 -0.1)">
       <defs>
        <path d="M 19.1875 8.296875 
L 53.609375 8.296875 
L 53.609375 0 
L 7.328125 0 
L 7.328125 8.296875 
Q 12.9375 14.109375 22.625 23.890625 
Q 32.328125 33.6875 34.8125 36.53125 
Q 39.546875 41.84375 41.421875 45.53125 
Q 43.3125 49.21875 43.3125 52.78125 
Q 43.3125 58.59375 39.234375 62.25 
Q 35.15625 65.921875 28.609375 65.921875 
Q 23.96875 65.921875 18.8125 64.3125 
Q 13.671875 62.703125 7.8125 59.421875 
L 7.8125 69.390625 
Q 13.765625 71.78125 18.9375 73 
Q 24.125 74.21875 28.421875 74.21875 
Q 39.75 74.21875 46.484375 68.546875 
Q 53.21875 62.890625 53.21875 53.421875 
Q 53.21875 48.921875 51.53125 44.890625 
Q 49.859375 40.875 45.40625 35.40625 
Q 44.1875 33.984375 37.640625 27.21875 
Q 31.109375 20.453125 19.1875 8.296875 
z
" id="DejaVuSans-50"/>
       </defs>
       <use xlink:href="#DejaVuSans-50"/>
       <use x="63.623047" xlink:href="#DejaVuSans-48"/>
       <use x="127.246094" xlink:href="#DejaVuSans-48"/>
      </g>
     </g>
    </g>
   </g>
   <g id="matplotlib.axis_2">
    <g id="ytick_1">
     <g id="line2d_4">
      <defs>
       <path d="M 0 0 
L -3.5 0 
" id="mc469694516" style="stroke:#000000;stroke-width:0.8;"/>
      </defs>
      <g>
       <use style="stroke:#000000;stroke-width:0.8;" x="54" xlink:href="#mc469694516" y="128.903802"/>
      </g>
     </g>
     <g id="text_4">
      <!-- 0 -->
      <g transform="translate(40.6375 132.70302)scale(0.1 -0.1)">
       <use xlink:href="#DejaVuSans-48"/>
      </g>
     </g>
    </g>
    <g id="ytick_2">
     <g id="line2d_5">
      <g>
       <use style="stroke:#000000;stroke-width:0.8;" x="54" xlink:href="#mc469694516" y="94.674758"/>
      </g>
     </g>
     <g id="text_5">
      <!-- 5000 -->
      <g transform="translate(21.55 98.473977)scale(0.1 -0.1)">
       <defs>
        <path d="M 10.796875 72.90625 
L 49.515625 72.90625 
L 49.515625 64.59375 
L 19.828125 64.59375 
L 19.828125 46.734375 
Q 21.96875 47.46875 24.109375 47.828125 
Q 26.265625 48.1875 28.421875 48.1875 
Q 40.625 48.1875 47.75 41.5 
Q 54.890625 34.8125 54.890625 23.390625 
Q 54.890625 11.625 47.5625 5.09375 
Q 40.234375 -1.421875 26.90625 -1.421875 
Q 22.3125 -1.421875 17.546875 -0.640625 
Q 12.796875 0.140625 7.71875 1.703125 
L 7.71875 11.625 
Q 12.109375 9.234375 16.796875 8.0625 
Q 21.484375 6.890625 26.703125 6.890625 
Q 35.15625 6.890625 40.078125 11.328125 
Q 45.015625 15.765625 45.015625 23.390625 
Q 45.015625 31 40.078125 35.4375 
Q 35.15625 39.890625 26.703125 39.890625 
Q 22.75 39.890625 18.8125 39.015625 
Q 14.890625 38.140625 10.796875 36.28125 
z
" id="DejaVuSans-53"/>
       </defs>
       <use xlink:href="#DejaVuSans-53"/>
       <use x="63.623047" xlink:href="#DejaVuSans-48"/>
       <use x="127.246094" xlink:href="#DejaVuSans-48"/>
       <use x="190.869141" xlink:href="#DejaVuSans-48"/>
      </g>
     </g>
    </g>
    <g id="ytick_3">
     <g id="line2d_6">
      <g>
       <use style="stroke:#000000;stroke-width:0.8;" x="54" xlink:href="#mc469694516" y="60.445714"/>
      </g>
     </g>
     <g id="text_6">
      <!-- 10000 -->
      <g transform="translate(15.1875 64.244933)scale(0.1 -0.1)">
       <use xlink:href="#DejaVuSans-49"/>
       <use x="63.623047" xlink:href="#DejaVuSans-48"/>
       <use x="127.246094" xlink:href="#DejaVuSans-48"/>
       <use x="190.869141" xlink:href="#DejaVuSans-48"/>
       <use x="254.492188" xlink:href="#DejaVuSans-48"/>
      </g>
     </g>
    </g>
   </g>
   <g id="line2d_7">
    <path clip-path="url(#p38127c62a7)" d="M 60.917355 128.903802 
L 83.975207 128.869573 
L 85.547333 128.520436 
L 86.595417 128.554665 
L 87.119459 128.349291 
L 88.167543 128.513591 
L 88.691585 127.904314 
L 90.263711 125.604122 
L 90.787754 125.624659 
L 91.311796 126.425619 
L 91.835838 125.864263 
L 92.883922 123.646221 
L 93.407964 122.064839 
L 93.932006 121.695165 
L 94.456048 120.305466 
L 94.98009 120.716214 
L 95.504132 119.463431 
L 96.028174 112.966759 
L 96.552216 112.658698 
L 97.600301 107.722869 
L 98.124343 107.072518 
L 98.648385 109.584929 
L 99.172427 109.317943 
L 99.696469 99.679044 
L 100.220511 98.008667 
L 100.744553 95.270343 
L 101.268595 95.585251 
L 101.792637 95.256652 
L 102.316679 101.431571 
L 102.840721 104.306811 
L 103.364763 92.737394 
L 103.888805 91.662602 
L 104.93689 95.640017 
L 105.460932 99.39152 
L 105.984974 104.416344 
L 106.509016 105.025621 
L 107.033058 100.260938 
L 107.5571 99.323062 
L 108.081142 94.277701 
L 108.605184 92.696319 
L 109.129226 94.989665 
L 109.653268 96.564201 
L 110.17731 102.520055 
L 110.701352 95.640017 
L 111.225394 96.310906 
L 111.749437 91.347695 
L 112.273479 93.668424 
L 112.797521 94.934899 
L 113.321563 103.245711 
L 113.845605 105.135154 
L 114.369647 96.673734 
L 114.893689 96.516281 
L 115.417731 91.676294 
L 115.941773 94.914361 
L 116.465815 96.475206 
L 116.989857 106.764456 
L 117.513899 108.523829 
L 118.037941 105.723893 
L 118.561983 103.697534 
L 119.086026 102.711737 
L 119.610068 103.136178 
L 120.13411 107.941935 
L 120.658152 114.110009 
L 121.182194 112.994142 
L 121.706236 104.368423 
L 122.230278 105.641744 
L 122.75432 106.257866 
L 123.278362 110.947245 
L 123.802404 111.597597 
L 124.326446 114.685057 
L 124.850488 116.328051 
L 125.37453 111.207386 
L 125.898573 108.003548 
L 126.422615 110.324277 
L 126.946657 111.275844 
L 127.994741 118.463943 
L 128.518783 119.559273 
L 129.042825 117.786208 
L 129.566867 117.484993 
L 130.090909 116.375972 
L 130.614951 116.896253 
L 131.138993 118.457098 
L 131.663035 121.236496 
L 132.187077 121.510328 
L 132.711119 119.086912 
L 133.235162 118.669318 
L 134.807288 121.215958 
L 135.33133 123.399771 
L 135.855372 123.967974 
L 136.379414 121.421333 
L 136.903456 120.990047 
L 137.427498 120.716214 
L 137.95154 121.975843 
L 138.475582 121.715702 
L 138.999624 122.811032 
L 139.523666 123.283393 
L 140.047708 121.777315 
L 140.571751 121.346029 
L 141.095793 121.962152 
L 141.619835 121.886848 
L 142.143877 122.119605 
L 142.667919 124.207577 
L 143.191961 124.536176 
L 143.716003 122.769957 
L 144.240045 122.838415 
L 144.764087 123.591454 
L 145.812171 124.303418 
L 146.336213 124.440334 
L 146.860255 125.843725 
L 147.384298 123.913207 
L 147.90834 124.679938 
L 148.432382 124.460872 
L 149.480466 124.974307 
L 150.004508 126.144941 
L 151.052592 124.050123 
L 151.576634 124.775779 
L 152.100676 124.091198 
L 152.624718 124.002203 
L 153.672802 125.836879 
L 154.196844 126.39139 
L 154.720887 123.878978 
L 155.244929 124.180194 
L 155.768971 123.625683 
L 156.293013 124.084352 
L 156.817055 124.933233 
L 157.341097 125.494589 
L 157.865139 125.871108 
L 158.389181 123.345005 
L 158.913223 123.543533 
L 159.961307 123.420309 
L 160.485349 123.646221 
L 161.009391 125.330289 
L 161.533434 125.08384 
L 162.057476 123.036944 
L 162.581518 123.125939 
L 163.10556 121.791006 
L 163.629602 122.571429 
L 164.153644 124.282881 
L 164.677686 125.186528 
L 165.201728 125.097532 
L 165.72577 121.763623 
L 166.249812 121.907385 
L 167.297896 121.482945 
L 167.821938 122.448204 
L 168.34598 124.132273 
L 168.870023 124.686783 
L 169.394065 118.81308 
L 170.442149 120.647756 
L 170.966191 121.058505 
L 171.490233 120.907897 
L 172.014275 124.132273 
L 172.538317 124.803162 
L 173.062359 120.113783 
L 173.586401 121.482945 
L 174.110443 120.401307 
L 174.634485 118.867846 
L 175.158527 120.695677 
L 175.682569 123.242318 
L 176.206612 123.262855 
L 176.730654 120.538223 
L 177.254696 120.367078 
L 177.778738 119.634577 
L 178.30278 118.196957 
L 178.826822 117.731442 
L 179.350864 120.497149 
L 179.874906 120.948972 
L 180.398948 118.635089 
L 181.447032 108.373221 
L 181.971074 107.695486 
L 182.495116 108.106235 
L 183.019159 111.488064 
L 183.543201 112.152108 
L 184.067243 102.458443 
L 184.591285 106.326324 
L 185.115327 106.100413 
L 185.639369 104.272582 
L 186.163411 106.381091 
L 187.211495 114.219542 
L 187.735537 105.689664 
L 188.259579 104.573797 
L 188.783621 98.980772 
L 189.307663 97.159787 
L 189.831705 94.921207 
L 190.355748 95.557867 
L 190.87979 92.57994 
L 191.403832 90.642577 
L 191.927874 85.035859 
L 192.975958 76.841426 
L 193.5 79.312763 
L 194.024042 82.749359 
L 194.548084 81.256973 
L 195.072126 61.219291 
L 195.596168 59.001249 
L 196.12021 43.830936 
L 196.644252 40.989926 
L 197.168295 39.052562 
L 197.692337 60.432023 
L 198.216379 59.480455 
L 198.740421 74.664459 
L 199.264463 122.619349 
L 199.264463 122.619349 
" style="fill:none;stroke:#1f77b4;stroke-linecap:square;stroke-width:1.5;"/>
   </g>
   <g id="patch_3">
    <path d="M 54 133.396364 
L 54 34.56 
" style="fill:none;stroke:#000000;stroke-linecap:square;stroke-linejoin:miter;stroke-width:0.8;"/>
   </g>
   <g id="patch_4">
    <path d="M 206.181818 133.396364 
L 206.181818 34.56 
" style="fill:none;stroke:#000000;stroke-linecap:square;stroke-linejoin:miter;stroke-width:0.8;"/>
   </g>
   <g id="patch_5">
    <path d="M 54 133.396364 
L 206.181818 133.396364 
" style="fill:none;stroke:#000000;stroke-linecap:square;stroke-linejoin:miter;stroke-width:0.8;"/>
   </g>
   <g id="patch_6">
    <path d="M 54 34.56 
L 206.181818 34.56 
" style="fill:none;stroke:#000000;stroke-linecap:square;stroke-linejoin:miter;stroke-width:0.8;"/>
   </g>
  </g>
  <g id="axes_2">
   <g id="patch_7">
    <path d="M 236.618182 133.396364 
L 388.8 133.396364 
L 388.8 34.56 
L 236.618182 34.56 
z
" style="fill:#ffffff;"/>
   </g>
   <g id="matplotlib.axis_3">
    <g id="xtick_4">
     <g id="line2d_8">
      <g>
       <use style="stroke:#000000;stroke-width:0.8;" x="243.535537" xlink:href="#mf10c9621ff" y="133.396364"/>
      </g>
     </g>
     <g id="text_7">
      <!-- 0 -->
      <g transform="translate(240.354287 147.994801)scale(0.1 -0.1)">
       <use xlink:href="#DejaVuSans-48"/>
      </g>
     </g>
    </g>
    <g id="xtick_5">
     <g id="line2d_9">
      <g>
       <use style="stroke:#000000;stroke-width:0.8;" x="295.939745" xlink:href="#mf10c9621ff" y="133.396364"/>
      </g>
     </g>
     <g id="text_8">
      <!-- 100 -->
      <g transform="translate(286.395995 147.994801)scale(0.1 -0.1)">
       <use xlink:href="#DejaVuSans-49"/>
       <use x="63.623047" xlink:href="#DejaVuSans-48"/>
       <use x="127.246094" xlink:href="#DejaVuSans-48"/>
      </g>
     </g>
    </g>
    <g id="xtick_6">
     <g id="line2d_10">
      <g>
       <use style="stroke:#000000;stroke-width:0.8;" x="348.343952" xlink:href="#mf10c9621ff" y="133.396364"/>
      </g>
     </g>
     <g id="text_9">
      <!-- 200 -->
      <g transform="translate(338.800202 147.994801)scale(0.1 -0.1)">
       <use xlink:href="#DejaVuSans-50"/>
       <use x="63.623047" xlink:href="#DejaVuSans-48"/>
       <use x="127.246094" xlink:href="#DejaVuSans-48"/>
      </g>
     </g>
    </g>
   </g>
   <g id="matplotlib.axis_4">
    <g id="ytick_4">
     <g id="line2d_11">
      <g>
       <use style="stroke:#000000;stroke-width:0.8;" x="236.618182" xlink:href="#mc469694516" y="128.903275"/>
      </g>
     </g>
     <g id="text_10">
      <!-- 0 -->
      <g transform="translate(223.255682 132.702494)scale(0.1 -0.1)">
       <use xlink:href="#DejaVuSans-48"/>
      </g>
     </g>
    </g>
    <g id="ytick_5">
     <g id="line2d_12">
      <g>
       <use style="stroke:#000000;stroke-width:0.8;" x="236.618182" xlink:href="#mc469694516" y="90.003669"/>
      </g>
     </g>
     <g id="text_11">
      <!-- 5000 -->
      <g transform="translate(204.168182 93.802888)scale(0.1 -0.1)">
       <use xlink:href="#DejaVuSans-53"/>
       <use x="63.623047" xlink:href="#DejaVuSans-48"/>
       <use x="127.246094" xlink:href="#DejaVuSans-48"/>
       <use x="190.869141" xlink:href="#DejaVuSans-48"/>
      </g>
     </g>
    </g>
    <g id="ytick_6">
     <g id="line2d_13">
      <g>
       <use style="stroke:#000000;stroke-width:0.8;" x="236.618182" xlink:href="#mc469694516" y="51.104063"/>
      </g>
     </g>
     <g id="text_12">
      <!-- 10000 -->
      <g transform="translate(197.805682 54.903282)scale(0.1 -0.1)">
       <use xlink:href="#DejaVuSans-49"/>
       <use x="63.623047" xlink:href="#DejaVuSans-48"/>
       <use x="127.246094" xlink:href="#DejaVuSans-48"/>
       <use x="190.869141" xlink:href="#DejaVuSans-48"/>
       <use x="254.492188" xlink:href="#DejaVuSans-48"/>
      </g>
     </g>
    </g>
   </g>
   <g id="line2d_14">
    <path clip-path="url(#pf94e5bc300)" d="M 243.535537 128.903802 
L 262.401052 128.797593 
L 265.021262 128.561911 
L 266.593388 128.25989 
L 268.165515 127.751252 
L 269.737641 126.938756 
L 270.785725 126.1706 
L 271.833809 125.176949 
L 272.881893 123.92052 
L 273.929977 122.369937 
L 274.978062 120.506386 
L 276.550188 117.134081 
L 278.122314 113.187463 
L 282.314651 102.227186 
L 283.886777 99.016221 
L 284.934861 97.345155 
L 285.982945 96.051591 
L 287.031029 95.096422 
L 288.079113 94.419636 
L 289.127198 93.958247 
L 290.699324 93.567417 
L 292.27145 93.487025 
L 293.319534 93.624302 
L 294.367618 93.94546 
L 295.415702 94.476362 
L 296.463787 95.231271 
L 297.511871 96.20665 
L 299.083997 98.027626 
L 301.180165 100.886868 
L 305.372502 106.741506 
L 309.040796 111.385478 
L 311.661007 114.422405 
L 313.757175 116.541049 
L 315.329301 117.873231 
L 316.901427 118.965724 
L 318.473554 119.83571 
L 320.569722 120.728731 
L 324.238017 121.947026 
L 328.954395 123.320249 
L 331.574606 123.818327 
L 333.670774 124.00538 
L 336.290984 124.000506 
L 339.435237 123.731275 
L 343.103531 123.162308 
L 346.771826 122.378384 
L 353.584373 120.640489 
L 355.680541 119.914384 
L 357.252667 119.091516 
L 358.300751 118.335424 
L 359.348835 117.376045 
L 360.39692 116.197956 
L 361.969046 114.03341 
L 363.541172 111.464838 
L 365.63734 107.547885 
L 367.209467 104.196877 
L 368.781593 100.272626 
L 370.353719 95.493065 
L 371.925845 89.64818 
L 373.497971 82.713453 
L 375.59414 72.111071 
L 381.358603 41.557347 
L 381.882645 39.052562 
L 381.882645 39.052562 
" style="fill:none;stroke:#1f77b4;stroke-linecap:square;stroke-width:1.5;"/>
   </g>
   <g id="patch_8">
    <path d="M 236.618182 133.396364 
L 236.618182 34.56 
" style="fill:none;stroke:#000000;stroke-linecap:square;stroke-linejoin:miter;stroke-width:0.8;"/>
   </g>
   <g id="patch_9">
    <path d="M 388.8 133.396364 
L 388.8 34.56 
" style="fill:none;stroke:#000000;stroke-linecap:square;stroke-linejoin:miter;stroke-width:0.8;"/>
   </g>
   <g id="patch_10">
    <path d="M 236.618182 133.396364 
L 388.8 133.396364 
" style="fill:none;stroke:#000000;stroke-linecap:square;stroke-linejoin:miter;stroke-width:0.8;"/>
   </g>
   <g id="patch_11">
    <path d="M 236.618182 34.56 
L 388.8 34.56 
" style="fill:none;stroke:#000000;stroke-linecap:square;stroke-linejoin:miter;stroke-width:0.8;"/>
   </g>
  </g>
  <g id="axes_3">
   <g id="patch_12">
    <path d="M 54 252 
L 206.181818 252 
L 206.181818 153.163636 
L 54 153.163636 
z
" style="fill:#ffffff;"/>
   </g>
   <g id="matplotlib.axis_5">
    <g id="xtick_7">
     <g id="line2d_15">
      <g>
       <use style="stroke:#000000;stroke-width:0.8;" x="60.917355" xlink:href="#mf10c9621ff" y="252"/>
      </g>
     </g>
     <g id="text_13">
      <!-- 0 -->
      <g transform="translate(57.736105 266.598437)scale(0.1 -0.1)">
       <use xlink:href="#DejaVuSans-48"/>
      </g>
     </g>
    </g>
    <g id="xtick_8">
     <g id="line2d_16">
      <g>
       <use style="stroke:#000000;stroke-width:0.8;" x="113.321563" xlink:href="#mf10c9621ff" y="252"/>
      </g>
     </g>
     <g id="text_14">
      <!-- 100 -->
      <g transform="translate(103.777813 266.598437)scale(0.1 -0.1)">
       <use xlink:href="#DejaVuSans-49"/>
       <use x="63.623047" xlink:href="#DejaVuSans-48"/>
       <use x="127.246094" xlink:href="#DejaVuSans-48"/>
      </g>
     </g>
    </g>
    <g id="xtick_9">
     <g id="line2d_17">
      <g>
       <use style="stroke:#000000;stroke-width:0.8;" x="165.72577" xlink:href="#mf10c9621ff" y="252"/>
      </g>
     </g>
     <g id="text_15">
      <!-- 200 -->
      <g transform="translate(156.18202 266.598437)scale(0.1 -0.1)">
       <use xlink:href="#DejaVuSans-50"/>
       <use x="63.623047" xlink:href="#DejaVuSans-48"/>
       <use x="127.246094" xlink:href="#DejaVuSans-48"/>
      </g>
     </g>
    </g>
   </g>
   <g id="matplotlib.axis_6">
    <g id="ytick_7">
     <g id="line2d_18">
      <g>
       <use style="stroke:#000000;stroke-width:0.8;" x="54" xlink:href="#mc469694516" y="220.73899"/>
      </g>
     </g>
     <g id="text_16">
      <!-- −2000 -->
      <g transform="translate(13.170313 224.538209)scale(0.1 -0.1)">
       <defs>
        <path d="M 10.59375 35.5 
L 73.1875 35.5 
L 73.1875 27.203125 
L 10.59375 27.203125 
z
" id="DejaVuSans-8722"/>
       </defs>
       <use xlink:href="#DejaVuSans-8722"/>
       <use x="83.789062" xlink:href="#DejaVuSans-50"/>
       <use x="147.412109" xlink:href="#DejaVuSans-48"/>
       <use x="211.035156" xlink:href="#DejaVuSans-48"/>
       <use x="274.658203" xlink:href="#DejaVuSans-48"/>
      </g>
     </g>
    </g>
    <g id="ytick_8">
     <g id="line2d_19">
      <g>
       <use style="stroke:#000000;stroke-width:0.8;" x="54" xlink:href="#mc469694516" y="186.894054"/>
      </g>
     </g>
     <g id="text_17">
      <!-- 0 -->
      <g transform="translate(40.6375 190.693272)scale(0.1 -0.1)">
       <use xlink:href="#DejaVuSans-48"/>
      </g>
     </g>
    </g>
   </g>
   <g id="line2d_20">
    <path clip-path="url(#pd347496795)" d="M 60.917355 189.610975 
L 61.441397 190.433724 
L 61.96544 189.977187 
L 62.489482 190.594786 
L 63.537566 176.105536 
L 64.061608 189.268348 
L 64.58565 189.610558 
L 65.109692 190.433378 
L 65.633734 189.977427 
L 66.157776 190.595136 
L 67.20586 176.106762 
L 67.729902 189.267658 
L 68.253944 189.609884 
L 68.777986 190.432864 
L 69.302029 189.977759 
L 69.826071 190.595585 
L 70.874155 176.108188 
L 71.398197 189.266865 
L 71.922239 189.609087 
L 72.446281 190.432205 
L 72.970323 189.978246 
L 73.494365 190.596382 
L 74.542449 176.112319 
L 75.066491 189.263884 
L 75.590533 189.60528 
L 76.114576 190.428361 
L 76.638618 189.98154 
L 77.16266 190.602302 
L 78.210744 176.14448 
L 78.734786 189.24123 
L 79.258828 189.577515 
L 79.78287 190.401716 
L 80.306912 190.003135 
L 80.830954 190.63896 
L 81.879038 176.3225 
L 82.40308 189.1224 
L 82.927122 189.439269 
L 83.451165 190.27557 
L 83.975207 190.100499 
L 84.499249 190.796569 
L 85.547333 177.020919 
L 86.071375 188.676384 
L 86.595417 188.94238 
L 87.119459 189.84102 
L 87.643501 190.422224 
L 88.167543 191.296515 
L 88.691585 184.236124 
L 89.215627 179.066651 
L 89.739669 187.42004 
L 90.263711 187.596007 
L 90.787754 188.708307 
L 91.311796 191.22882 
L 91.835838 192.501515 
L 92.35988 185.343339 
L 92.883922 183.612422 
L 93.407964 184.744358 
L 93.932006 184.851942 
L 94.456048 186.502849 
L 94.98009 192.726283 
L 95.504132 194.630251 
L 96.028174 187.200597 
L 96.552216 190.836744 
L 97.076258 180.724603 
L 97.600301 180.96369 
L 98.124343 183.562003 
L 98.648385 194.601133 
L 99.172427 197.12714 
L 99.696469 189.236968 
L 100.220511 198.225001 
L 100.744553 176.898332 
L 101.268595 177.526067 
L 101.792637 181.15189 
L 102.316679 196.022744 
L 102.840721 198.875892 
L 103.364763 190.552423 
L 103.888805 202.622191 
L 104.412847 174.801624 
L 104.93689 175.791865 
L 105.460932 180.032004 
L 105.984974 196.631843 
L 106.509016 199.56782 
L 107.033058 191.033751 
L 107.5571 204.110367 
L 108.081142 174.147322 
L 108.605184 175.297975 
L 109.129226 179.748099 
L 109.653268 196.761835 
L 110.17731 199.676627 
L 110.701352 191.069457 
L 111.225394 204.032789 
L 111.749437 174.309097 
L 112.273479 175.571953 
L 112.797521 180.049115 
L 113.321563 196.505412 
L 113.845605 199.24094 
L 114.369647 190.628934 
L 114.893689 202.088586 
L 115.417731 175.518007 
L 115.941773 176.8642 
L 116.465815 181.120312 
L 116.989857 195.761444 
L 117.513899 198.166064 
L 118.037941 189.6804 
L 118.561983 198.369339 
L 119.086026 177.599897 
L 119.610068 178.888661 
L 120.13411 182.660568 
L 120.658152 194.771752 
L 121.182194 196.833195 
L 121.706236 188.575951 
L 122.230278 194.273057 
L 122.75432 179.784867 
L 123.278362 180.92848 
L 123.802404 184.161652 
L 124.326446 193.832018 
L 124.850488 195.59161 
L 125.37453 187.560331 
L 125.898573 190.534669 
L 126.422615 181.772146 
L 126.946657 182.782652 
L 127.470699 185.527202 
L 127.994741 192.976508 
L 128.518783 194.462048 
L 129.042825 186.639279 
L 129.566867 187.166523 
L 130.090909 183.543944 
L 130.614951 184.411739 
L 131.138993 186.704672 
L 131.663035 192.255323 
L 132.187077 193.534268 
L 132.711119 185.904223 
L 133.235162 184.560332 
L 133.759204 184.871314 
L 134.283246 185.592558 
L 134.807288 187.530462 
L 135.33133 191.765547 
L 135.855372 192.923152 
L 136.379414 185.433456 
L 136.903456 182.931789 
L 137.427498 185.684258 
L 137.95154 186.305422 
L 138.475582 188.025298 
L 138.999624 191.47186 
L 139.523666 192.553099 
L 140.047708 185.142778 
L 140.571751 181.896466 
L 141.095793 186.221134 
L 141.619835 186.798034 
L 142.143877 188.384813 
L 142.667919 191.247156 
L 143.191961 192.255481 
L 143.716003 184.898345 
L 144.240045 180.993847 
L 144.764087 186.701121 
L 145.288129 187.244015 
L 145.812171 188.710024 
L 146.336213 191.046771 
L 146.860255 191.997183 
L 147.384298 184.694354 
L 147.90834 180.277458 
L 148.432382 187.059745 
L 148.956424 187.554686 
L 149.480466 188.91922 
L 150.004508 190.928958 
L 150.52855 191.860036 
L 151.052592 184.598022 
L 151.576634 179.982941 
L 152.100676 187.18398 
L 152.624718 187.640505 
L 153.14876 188.960564 
L 153.672802 190.916456 
L 154.196844 191.860779 
L 154.720887 184.612353 
L 155.244929 180.084579 
L 155.768971 187.10487 
L 156.293013 187.544127 
L 156.817055 188.87352 
L 157.341097 190.980774 
L 157.865139 191.958384 
L 158.389181 184.702231 
L 158.913223 180.451301 
L 159.437265 186.891347 
L 159.961307 187.327919 
L 160.485349 188.701898 
L 161.009391 191.0961 
L 161.533434 192.121204 
L 162.057476 184.843971 
L 162.581518 181.004477 
L 163.10556 186.580597 
L 163.629602 187.022425 
L 164.153644 188.465436 
L 164.677686 191.251459 
L 165.201728 192.335927 
L 165.72577 185.026968 
L 166.249812 181.703037 
L 166.773854 186.197345 
L 167.297896 186.655093 
L 167.821938 188.188643 
L 168.34598 191.428371 
L 168.870023 192.57394 
L 169.394065 185.224924 
L 169.918107 182.444215 
L 170.442149 185.795288 
L 170.966191 186.269742 
L 171.490233 187.894044 
L 172.014275 191.622684 
L 172.538317 192.848709 
L 173.062359 185.46944 
L 173.586401 183.438832 
L 174.110443 185.202852 
L 174.634485 185.643421 
L 175.158527 187.36713 
L 175.682569 192.0017 
L 176.206612 193.424678 
L 176.730654 186.010128 
L 177.254696 185.712011 
L 177.778738 183.831534 
L 178.30278 184.202234 
L 178.826822 186.180926 
L 179.350864 192.825824 
L 179.874906 194.622643 
L 180.398948 187.078658 
L 180.92299 189.963305 
L 181.447032 181.408397 
L 181.971074 181.794721 
L 182.495116 184.302702 
L 183.019159 194.068237 
L 183.543201 196.352863 
L 184.067243 188.56869 
L 184.591285 195.738962 
L 185.115327 178.169323 
L 185.639369 178.595812 
L 186.163411 181.79749 
L 186.687453 195.746392 
L 187.211495 198.73611 
L 187.735537 190.671394 
L 188.259579 204.105345 
L 188.783621 173.357121 
L 189.307663 173.738143 
L 189.831705 177.930489 
L 190.355748 198.361096 
L 190.87979 202.455194 
L 191.403832 193.931905 
L 191.927874 216.90028 
L 192.451916 166.14689 
L 192.975958 166.647092 
L 193.5 172.455256 
L 194.024042 201.939997 
L 194.548084 207.364918 
L 195.072126 198.077422 
L 195.596168 232.557025 
L 196.12021 157.656198 
L 196.644252 158.607988 
L 197.168295 166.474588 
L 197.692337 205.710861 
L 198.216379 212.362005 
L 198.740421 202.160173 
L 199.264463 247.507438 
L 199.264463 247.507438 
" style="fill:none;stroke:#1f77b4;stroke-linecap:square;stroke-width:1.5;"/>
   </g>
   <g id="patch_13">
    <path d="M 54 252 
L 54 153.163636 
" style="fill:none;stroke:#000000;stroke-linecap:square;stroke-linejoin:miter;stroke-width:0.8;"/>
   </g>
   <g id="patch_14">
    <path d="M 206.181818 252 
L 206.181818 153.163636 
" style="fill:none;stroke:#000000;stroke-linecap:square;stroke-linejoin:miter;stroke-width:0.8;"/>
   </g>
   <g id="patch_15">
    <path d="M 54 252 
L 206.181818 252 
" style="fill:none;stroke:#000000;stroke-linecap:square;stroke-linejoin:miter;stroke-width:0.8;"/>
   </g>
   <g id="patch_16">
    <path d="M 54 153.163636 
L 206.181818 153.163636 
" style="fill:none;stroke:#000000;stroke-linecap:square;stroke-linejoin:miter;stroke-width:0.8;"/>
   </g>
  </g>
  <g id="axes_4">
   <g id="patch_17">
    <path d="M 236.618182 252 
L 388.8 252 
L 388.8 153.163636 
L 236.618182 153.163636 
z
" style="fill:#ffffff;"/>
   </g>
   <g id="matplotlib.axis_7">
    <g id="xtick_10">
     <g id="line2d_21">
      <g>
       <use style="stroke:#000000;stroke-width:0.8;" x="243.535537" xlink:href="#mf10c9621ff" y="252"/>
      </g>
     </g>
     <g id="text_18">
      <!-- 0 -->
      <g transform="translate(240.354287 266.598437)scale(0.1 -0.1)">
       <use xlink:href="#DejaVuSans-48"/>
      </g>
     </g>
    </g>
    <g id="xtick_11">
     <g id="line2d_22">
      <g>
       <use style="stroke:#000000;stroke-width:0.8;" x="295.939745" xlink:href="#mf10c9621ff" y="252"/>
      </g>
     </g>
     <g id="text_19">
      <!-- 100 -->
      <g transform="translate(286.395995 266.598437)scale(0.1 -0.1)">
       <use xlink:href="#DejaVuSans-49"/>
       <use x="63.623047" xlink:href="#DejaVuSans-48"/>
       <use x="127.246094" xlink:href="#DejaVuSans-48"/>
      </g>
     </g>
    </g>
    <g id="xtick_12">
     <g id="line2d_23">
      <g>
       <use style="stroke:#000000;stroke-width:0.8;" x="348.343952" xlink:href="#mf10c9621ff" y="252"/>
      </g>
     </g>
     <g id="text_20">
      <!-- 200 -->
      <g transform="translate(338.800202 266.598437)scale(0.1 -0.1)">
       <use xlink:href="#DejaVuSans-50"/>
       <use x="63.623047" xlink:href="#DejaVuSans-48"/>
       <use x="127.246094" xlink:href="#DejaVuSans-48"/>
      </g>
     </g>
    </g>
   </g>
   <g id="matplotlib.axis_8">
    <g id="ytick_9">
     <g id="line2d_24">
      <g>
       <use style="stroke:#000000;stroke-width:0.8;" x="236.618182" xlink:href="#mc469694516" y="230.502448"/>
      </g>
     </g>
     <g id="text_21">
      <!-- −5000 -->
      <g transform="translate(195.788494 234.301667)scale(0.1 -0.1)">
       <use xlink:href="#DejaVuSans-8722"/>
       <use x="83.789062" xlink:href="#DejaVuSans-53"/>
       <use x="147.412109" xlink:href="#DejaVuSans-48"/>
       <use x="211.035156" xlink:href="#DejaVuSans-48"/>
       <use x="274.658203" xlink:href="#DejaVuSans-48"/>
      </g>
     </g>
    </g>
    <g id="ytick_10">
     <g id="line2d_25">
      <g>
       <use style="stroke:#000000;stroke-width:0.8;" x="236.618182" xlink:href="#mc469694516" y="189.011137"/>
      </g>
     </g>
     <g id="text_22">
      <!-- 0 -->
      <g transform="translate(223.255682 192.810356)scale(0.1 -0.1)">
       <use xlink:href="#DejaVuSans-48"/>
      </g>
     </g>
    </g>
   </g>
   <g id="line2d_26">
    <path clip-path="url(#p8c94da1c69)" d="M 243.535537 187.67828 
L 244.059579 187.274932 
L 244.583621 187.498924 
L 245.107663 187.196211 
L 246.155748 194.30163 
L 246.67979 187.847182 
L 247.203832 187.679583 
L 247.727874 187.276323 
L 248.251916 187.500147 
L 248.775958 187.197493 
L 249.824042 194.302674 
L 250.348084 187.84924 
L 250.872126 187.665095 
L 251.396168 187.278396 
L 251.92021 187.501832 
L 252.444252 187.199138 
L 253.492337 194.303888 
L 254.016379 187.843308 
L 254.540421 187.684185 
L 255.064463 187.281047 
L 255.588505 187.471109 
L 256.112547 187.193758 
L 257.160631 194.299109 
L 257.684673 187.860497 
L 258.208715 187.696095 
L 258.732757 187.296527 
L 259.256799 187.521027 
L 259.780841 187.223744 
L 260.828926 194.334804 
L 261.352968 187.928074 
L 261.87701 187.782951 
L 262.401052 187.395511 
L 262.925094 187.630676 
L 263.449136 187.349746 
L 264.49722 194.444959 
L 265.021262 188.249338 
L 265.545304 188.149037 
L 266.069346 187.812155 
L 266.593388 188.083554 
L 267.117431 187.752894 
L 268.165515 194.616695 
L 268.689557 189.148255 
L 269.213599 189.346618 
L 269.737641 188.989281 
L 270.261683 189.210926 
L 270.785725 189.294044 
L 271.309767 192.515 
L 271.833809 194.658205 
L 272.357851 189.999726 
L 272.881893 189.981891 
L 273.405935 190.247414 
L 273.929977 190.850154 
L 274.45402 190.497222 
L 274.978062 193.64936 
L 275.502104 194.323295 
L 276.026146 193.051884 
L 276.550188 193.827778 
L 278.122314 190.537124 
L 278.646356 187.798883 
L 279.170398 187.158613 
L 279.69444 190.935412 
L 280.218482 189.054549 
L 280.742524 188.480591 
L 281.266566 187.55944 
L 281.790609 187.386631 
L 282.838693 175.694009 
L 283.362735 183.976489 
L 283.886777 185.095564 
L 284.410819 183.862052 
L 284.934861 184.894474 
L 285.458903 187.718981 
L 285.982945 178.417908 
L 286.506987 171.747259 
L 287.031029 188.413465 
L 287.555071 190.587012 
L 288.079113 193.383397 
L 288.603156 191.605235 
L 289.127198 191.125227 
L 289.65124 189.711885 
L 290.175282 182.300716 
L 290.699324 190.979261 
L 291.223366 188.563782 
L 291.747408 189.190752 
L 292.27145 182.747163 
L 292.795492 188.486687 
L 293.319534 184.271842 
L 293.843576 178.583396 
L 294.367618 186.945046 
L 294.89166 188.885058 
L 295.415702 187.912331 
L 295.939745 189.544275 
L 296.463787 190.060452 
L 297.511871 177.176177 
L 298.035913 183.73729 
L 298.559955 186.352837 
L 299.083997 185.466289 
L 299.608039 190.032063 
L 300.132081 190.230205 
L 300.656123 190.220733 
L 301.180165 182.712819 
L 301.704207 190.903994 
L 302.228249 189.985976 
L 302.752292 193.164079 
L 303.276334 193.91091 
L 303.800376 190.765911 
L 304.324418 183.588817 
L 304.84846 181.580113 
L 305.372502 188.684922 
L 305.896544 193.073178 
L 306.944628 189.83644 
L 307.46867 190.258527 
L 307.992712 187.29117 
L 308.516754 181.258472 
L 309.040796 187.686209 
L 309.564838 187.671133 
L 310.088881 189.936505 
L 310.612923 190.07321 
L 311.136965 190.037077 
L 311.661007 191.105358 
L 312.185049 189.882415 
L 312.709091 189.736757 
L 313.233133 189.387773 
L 314.281217 189.772166 
L 314.805259 189.003092 
L 315.329301 189.361737 
L 315.853343 189.097934 
L 316.377385 189.660914 
L 316.901427 189.884466 
L 317.42547 189.645897 
L 317.949512 189.90757 
L 318.473554 189.7433 
L 318.997596 190.064961 
L 319.521638 190.523773 
L 320.04568 188.613487 
L 320.569722 189.621119 
L 321.093764 188.259224 
L 321.617806 187.702713 
L 322.141848 187.557757 
L 322.66589 189.183464 
L 323.189932 190.073344 
L 323.713974 188.522317 
L 324.762059 187.301244 
L 325.286101 188.254619 
L 325.810143 187.985994 
L 326.334185 189.282592 
L 326.858227 191.11347 
L 327.382269 189.065545 
L 327.906311 189.091439 
L 328.430353 188.638937 
L 328.954395 187.519302 
L 330.002479 189.746962 
L 330.526521 192.735448 
L 331.050563 189.049678 
L 331.574606 189.073874 
L 332.098648 188.609843 
L 332.62269 188.987368 
L 333.146732 187.226008 
L 333.670774 189.477793 
L 334.194816 192.60074 
L 334.718858 188.230991 
L 335.2429 187.900898 
L 335.766942 188.509759 
L 336.290984 188.55047 
L 336.815026 188.788804 
L 337.339068 189.335069 
L 337.86311 191.965371 
L 338.387153 187.902687 
L 339.435237 188.744062 
L 339.959279 188.46213 
L 340.483321 188.515719 
L 341.007363 189.093788 
L 341.531405 191.506024 
L 342.055447 188.323854 
L 342.579489 188.173399 
L 343.103531 187.875022 
L 343.627573 188.848543 
L 344.151615 188.157922 
L 344.675657 189.360615 
L 345.199699 191.471052 
L 345.723742 187.242613 
L 346.247784 188.100085 
L 346.771826 189.598868 
L 347.295868 189.463117 
L 347.81991 188.961173 
L 348.343952 188.643747 
L 348.867994 190.589029 
L 349.392036 188.194959 
L 349.916078 187.929779 
L 350.964162 189.083464 
L 351.488204 189.335254 
L 352.012246 185.961373 
L 352.536289 188.581553 
L 353.060331 188.199311 
L 353.584373 188.62077 
L 354.108415 187.808521 
L 354.632457 190.070093 
L 355.156499 190.482961 
L 355.680541 188.642536 
L 356.204583 191.553172 
L 357.252667 187.924629 
L 357.776709 189.672883 
L 358.300751 190.91578 
L 358.824793 190.725955 
L 359.348835 191.599348 
L 360.39692 192.828874 
L 360.920962 191.619831 
L 361.445004 190.855956 
L 361.969046 191.772689 
L 362.493088 192.309975 
L 363.01713 194.119038 
L 363.541172 187.435261 
L 364.065214 186.406236 
L 364.589256 186.421663 
L 365.63734 187.16056 
L 366.161382 187.985491 
L 366.685424 181.240805 
L 367.209467 183.658668 
L 367.733509 193.313088 
L 368.257551 192.2796 
L 368.781593 194.747234 
L 369.305635 194.61926 
L 369.829677 199.222765 
L 370.353719 194.655618 
L 370.877761 188.661205 
L 371.401803 199.037268 
L 371.925845 198.853837 
L 372.449887 196.42633 
L 372.973929 189.647609 
L 373.497971 186.61709 
L 374.022014 191.14395 
L 374.546056 175.877313 
L 375.070098 198.355199 
L 375.59414 196.407357 
L 376.118182 199.552186 
L 376.642224 192.293525 
L 377.166266 190.878894 
L 378.21435 157.656198 
L 378.738392 179.020939 
L 379.262434 178.097894 
L 379.786476 174.83112 
L 380.310518 184.387853 
L 380.83456 182.78931 
L 381.358603 208.943359 
L 381.882645 247.507438 
L 381.882645 247.507438 
" style="fill:none;stroke:#1f77b4;stroke-linecap:square;stroke-width:1.5;"/>
   </g>
   <g id="patch_18">
    <path d="M 236.618182 252 
L 236.618182 153.163636 
" style="fill:none;stroke:#000000;stroke-linecap:square;stroke-linejoin:miter;stroke-width:0.8;"/>
   </g>
   <g id="patch_19">
    <path d="M 388.8 252 
L 388.8 153.163636 
" style="fill:none;stroke:#000000;stroke-linecap:square;stroke-linejoin:miter;stroke-width:0.8;"/>
   </g>
   <g id="patch_20">
    <path d="M 236.618182 252 
L 388.8 252 
" style="fill:none;stroke:#000000;stroke-linecap:square;stroke-linejoin:miter;stroke-width:0.8;"/>
   </g>
   <g id="patch_21">
    <path d="M 236.618182 153.163636 
L 388.8 153.163636 
" style="fill:none;stroke:#000000;stroke-linecap:square;stroke-linejoin:miter;stroke-width:0.8;"/>
   </g>
   <g id="legend_1">
    <g id="line2d_27">
     <path d="M 245.618182 166.262074 
L 265.618182 166.262074 
" style="fill:none;stroke:#1f77b4;stroke-linecap:square;stroke-width:1.5;"/>
    </g>
    <g id="line2d_28"/>
    <g id="text_23">
     <!-- Residual -->
     <g transform="translate(273.618182 169.762074)scale(0.1 -0.1)">
      <defs>
       <path d="M 44.390625 34.1875 
Q 47.5625 33.109375 50.5625 29.59375 
Q 53.5625 26.078125 56.59375 19.921875 
L 66.609375 0 
L 56 0 
L 46.6875 18.703125 
Q 43.0625 26.03125 39.671875 28.421875 
Q 36.28125 30.8125 30.421875 30.8125 
L 19.671875 30.8125 
L 19.671875 0 
L 9.8125 0 
L 9.8125 72.90625 
L 32.078125 72.90625 
Q 44.578125 72.90625 50.734375 67.671875 
Q 56.890625 62.453125 56.890625 51.90625 
Q 56.890625 45.015625 53.6875 40.46875 
Q 50.484375 35.9375 44.390625 34.1875 
z
M 19.671875 64.796875 
L 19.671875 38.921875 
L 32.078125 38.921875 
Q 39.203125 38.921875 42.84375 42.21875 
Q 46.484375 45.515625 46.484375 51.90625 
Q 46.484375 58.296875 42.84375 61.546875 
Q 39.203125 64.796875 32.078125 64.796875 
z
" id="DejaVuSans-82"/>
       <path d="M 56.203125 29.59375 
L 56.203125 25.203125 
L 14.890625 25.203125 
Q 15.484375 15.921875 20.484375 11.0625 
Q 25.484375 6.203125 34.421875 6.203125 
Q 39.59375 6.203125 44.453125 7.46875 
Q 49.3125 8.734375 54.109375 11.28125 
L 54.109375 2.78125 
Q 49.265625 0.734375 44.1875 -0.34375 
Q 39.109375 -1.421875 33.890625 -1.421875 
Q 20.796875 -1.421875 13.15625 6.1875 
Q 5.515625 13.8125 5.515625 26.8125 
Q 5.515625 40.234375 12.765625 48.109375 
Q 20.015625 56 32.328125 56 
Q 43.359375 56 49.78125 48.890625 
Q 56.203125 41.796875 56.203125 29.59375 
z
M 47.21875 32.234375 
Q 47.125 39.59375 43.09375 43.984375 
Q 39.0625 48.390625 32.421875 48.390625 
Q 24.90625 48.390625 20.390625 44.140625 
Q 15.875 39.890625 15.1875 32.171875 
z
" id="DejaVuSans-101"/>
       <path d="M 44.28125 53.078125 
L 44.28125 44.578125 
Q 40.484375 46.53125 36.375 47.5 
Q 32.28125 48.484375 27.875 48.484375 
Q 21.1875 48.484375 17.84375 46.4375 
Q 14.5 44.390625 14.5 40.28125 
Q 14.5 37.15625 16.890625 35.375 
Q 19.28125 33.59375 26.515625 31.984375 
L 29.59375 31.296875 
Q 39.15625 29.25 43.1875 25.515625 
Q 47.21875 21.78125 47.21875 15.09375 
Q 47.21875 7.46875 41.1875 3.015625 
Q 35.15625 -1.421875 24.609375 -1.421875 
Q 20.21875 -1.421875 15.453125 -0.5625 
Q 10.6875 0.296875 5.421875 2 
L 5.421875 11.28125 
Q 10.40625 8.6875 15.234375 7.390625 
Q 20.0625 6.109375 24.8125 6.109375 
Q 31.15625 6.109375 34.5625 8.28125 
Q 37.984375 10.453125 37.984375 14.40625 
Q 37.984375 18.0625 35.515625 20.015625 
Q 33.0625 21.96875 24.703125 23.78125 
L 21.578125 24.515625 
Q 13.234375 26.265625 9.515625 29.90625 
Q 5.8125 33.546875 5.8125 39.890625 
Q 5.8125 47.609375 11.28125 51.796875 
Q 16.75 56 26.8125 56 
Q 31.78125 56 36.171875 55.265625 
Q 40.578125 54.546875 44.28125 53.078125 
z
" id="DejaVuSans-115"/>
       <path d="M 9.421875 54.6875 
L 18.40625 54.6875 
L 18.40625 0 
L 9.421875 0 
z
M 9.421875 75.984375 
L 18.40625 75.984375 
L 18.40625 64.59375 
L 9.421875 64.59375 
z
" id="DejaVuSans-105"/>
       <path d="M 45.40625 46.390625 
L 45.40625 75.984375 
L 54.390625 75.984375 
L 54.390625 0 
L 45.40625 0 
L 45.40625 8.203125 
Q 42.578125 3.328125 38.25 0.953125 
Q 33.9375 -1.421875 27.875 -1.421875 
Q 17.96875 -1.421875 11.734375 6.484375 
Q 5.515625 14.40625 5.515625 27.296875 
Q 5.515625 40.1875 11.734375 48.09375 
Q 17.96875 56 27.875 56 
Q 33.9375 56 38.25 53.625 
Q 42.578125 51.265625 45.40625 46.390625 
z
M 14.796875 27.296875 
Q 14.796875 17.390625 18.875 11.75 
Q 22.953125 6.109375 30.078125 6.109375 
Q 37.203125 6.109375 41.296875 11.75 
Q 45.40625 17.390625 45.40625 27.296875 
Q 45.40625 37.203125 41.296875 42.84375 
Q 37.203125 48.484375 30.078125 48.484375 
Q 22.953125 48.484375 18.875 42.84375 
Q 14.796875 37.203125 14.796875 27.296875 
z
" id="DejaVuSans-100"/>
       <path d="M 8.5 21.578125 
L 8.5 54.6875 
L 17.484375 54.6875 
L 17.484375 21.921875 
Q 17.484375 14.15625 20.5 10.265625 
Q 23.53125 6.390625 29.59375 6.390625 
Q 36.859375 6.390625 41.078125 11.03125 
Q 45.3125 15.671875 45.3125 23.6875 
L 45.3125 54.6875 
L 54.296875 54.6875 
L 54.296875 0 
L 45.3125 0 
L 45.3125 8.40625 
Q 42.046875 3.421875 37.71875 1 
Q 33.40625 -1.421875 27.6875 -1.421875 
Q 18.265625 -1.421875 13.375 4.4375 
Q 8.5 10.296875 8.5 21.578125 
z
M 31.109375 56 
z
" id="DejaVuSans-117"/>
       <path d="M 34.28125 27.484375 
Q 23.390625 27.484375 19.1875 25 
Q 14.984375 22.515625 14.984375 16.5 
Q 14.984375 11.71875 18.140625 8.90625 
Q 21.296875 6.109375 26.703125 6.109375 
Q 34.1875 6.109375 38.703125 11.40625 
Q 43.21875 16.703125 43.21875 25.484375 
L 43.21875 27.484375 
z
M 52.203125 31.203125 
L 52.203125 0 
L 43.21875 0 
L 43.21875 8.296875 
Q 40.140625 3.328125 35.546875 0.953125 
Q 30.953125 -1.421875 24.3125 -1.421875 
Q 15.921875 -1.421875 10.953125 3.296875 
Q 6 8.015625 6 15.921875 
Q 6 25.140625 12.171875 29.828125 
Q 18.359375 34.515625 30.609375 34.515625 
L 43.21875 34.515625 
L 43.21875 35.40625 
Q 43.21875 41.609375 39.140625 45 
Q 35.0625 48.390625 27.6875 48.390625 
Q 23 48.390625 18.546875 47.265625 
Q 14.109375 46.140625 10.015625 43.890625 
L 10.015625 52.203125 
Q 14.9375 54.109375 19.578125 55.046875 
Q 24.21875 56 28.609375 56 
Q 40.484375 56 46.34375 49.84375 
Q 52.203125 43.703125 52.203125 31.203125 
z
" id="DejaVuSans-97"/>
       <path d="M 9.421875 75.984375 
L 18.40625 75.984375 
L 18.40625 0 
L 9.421875 0 
z
" id="DejaVuSans-108"/>
      </defs>
      <use xlink:href="#DejaVuSans-82"/>
      <use x="64.982422" xlink:href="#DejaVuSans-101"/>
      <use x="126.505859" xlink:href="#DejaVuSans-115"/>
      <use x="178.605469" xlink:href="#DejaVuSans-105"/>
      <use x="206.388672" xlink:href="#DejaVuSans-100"/>
      <use x="269.865234" xlink:href="#DejaVuSans-117"/>
      <use x="333.244141" xlink:href="#DejaVuSans-97"/>
      <use x="394.523438" xlink:href="#DejaVuSans-108"/>
     </g>
    </g>
   </g>
  </g>
 </g>
 <defs>
  <clipPath id="p38127c62a7">
   <rect height="98.836364" width="152.181818" x="54" y="34.56"/>
  </clipPath>
  <clipPath id="pf94e5bc300">
   <rect height="98.836364" width="152.181818" x="236.618182" y="34.56"/>
  </clipPath>
  <clipPath id="pd347496795">
   <rect height="98.836364" width="152.181818" x="54" y="153.163636"/>
  </clipPath>
  <clipPath id="p8c94da1c69">
   <rect height="98.836364" width="152.181818" x="236.618182" y="153.163636"/>
  </clipPath>
 </defs>
</svg>
